%TF.GenerationSoftware,KiCad,Pcbnew,9.0.3*%
%TF.CreationDate,2025-07-28T01:45:30+03:00*%
%TF.ProjectId,Charger USB,43686172-6765-4722-9055-53422e6b6963,rev?*%
%TF.SameCoordinates,Original*%
%TF.FileFunction,Copper,L1,Top*%
%TF.FilePolarity,Positive*%
%FSLAX46Y46*%
G04 Gerber Fmt 4.6, Leading zero omitted, Abs format (unit mm)*
G04 Created by KiCad (PCBNEW 9.0.3) date 2025-07-28 01:45:30*
%MOMM*%
%LPD*%
G01*
G04 APERTURE LIST*
G04 Aperture macros list*
%AMRoundRect*
0 Rectangle with rounded corners*
0 $1 Rounding radius*
0 $2 $3 $4 $5 $6 $7 $8 $9 X,Y pos of 4 corners*
0 Add a 4 corners polygon primitive as box body*
4,1,4,$2,$3,$4,$5,$6,$7,$8,$9,$2,$3,0*
0 Add four circle primitives for the rounded corners*
1,1,$1+$1,$2,$3*
1,1,$1+$1,$4,$5*
1,1,$1+$1,$6,$7*
1,1,$1+$1,$8,$9*
0 Add four rect primitives between the rounded corners*
20,1,$1+$1,$2,$3,$4,$5,0*
20,1,$1+$1,$4,$5,$6,$7,0*
20,1,$1+$1,$6,$7,$8,$9,0*
20,1,$1+$1,$8,$9,$2,$3,0*%
G04 Aperture macros list end*
%ADD10C,0.300000*%
%TA.AperFunction,NonConductor*%
%ADD11C,0.300000*%
%TD*%
%TA.AperFunction,NonConductor*%
%ADD12C,0.200000*%
%TD*%
%TA.AperFunction,SMDPad,CuDef*%
%ADD13RoundRect,0.150000X0.587500X0.150000X-0.587500X0.150000X-0.587500X-0.150000X0.587500X-0.150000X0*%
%TD*%
%TA.AperFunction,SMDPad,CuDef*%
%ADD14RoundRect,0.200000X-0.275000X0.200000X-0.275000X-0.200000X0.275000X-0.200000X0.275000X0.200000X0*%
%TD*%
%TA.AperFunction,SMDPad,CuDef*%
%ADD15RoundRect,0.250000X-0.625000X0.312500X-0.625000X-0.312500X0.625000X-0.312500X0.625000X0.312500X0*%
%TD*%
%TA.AperFunction,SMDPad,CuDef*%
%ADD16RoundRect,0.250000X-0.262500X-0.450000X0.262500X-0.450000X0.262500X0.450000X-0.262500X0.450000X0*%
%TD*%
%TA.AperFunction,ComponentPad*%
%ADD17R,1.700000X1.700000*%
%TD*%
%TA.AperFunction,ComponentPad*%
%ADD18O,1.700000X1.700000*%
%TD*%
%TA.AperFunction,SMDPad,CuDef*%
%ADD19RoundRect,0.135000X-0.185000X0.135000X-0.185000X-0.135000X0.185000X-0.135000X0.185000X0.135000X0*%
%TD*%
%TA.AperFunction,ComponentPad*%
%ADD20R,1.800000X1.800000*%
%TD*%
%TA.AperFunction,ComponentPad*%
%ADD21C,1.800000*%
%TD*%
%TA.AperFunction,SMDPad,CuDef*%
%ADD22RoundRect,0.100000X-0.100000X0.130000X-0.100000X-0.130000X0.100000X-0.130000X0.100000X0.130000X0*%
%TD*%
%TA.AperFunction,SMDPad,CuDef*%
%ADD23RoundRect,0.150000X-0.587500X-0.150000X0.587500X-0.150000X0.587500X0.150000X-0.587500X0.150000X0*%
%TD*%
%TA.AperFunction,SMDPad,CuDef*%
%ADD24RoundRect,0.200000X0.275000X-0.200000X0.275000X0.200000X-0.275000X0.200000X-0.275000X-0.200000X0*%
%TD*%
%TA.AperFunction,SMDPad,CuDef*%
%ADD25RoundRect,0.200000X0.200000X0.275000X-0.200000X0.275000X-0.200000X-0.275000X0.200000X-0.275000X0*%
%TD*%
%TA.AperFunction,SMDPad,CuDef*%
%ADD26R,0.508000X0.977900*%
%TD*%
%TA.AperFunction,SMDPad,CuDef*%
%ADD27RoundRect,0.325000X-1.175000X0.325000X-1.175000X-0.325000X1.175000X-0.325000X1.175000X0.325000X0*%
%TD*%
%TA.AperFunction,ComponentPad*%
%ADD28O,2.900000X1.200000*%
%TD*%
%TA.AperFunction,ViaPad*%
%ADD29C,1.200000*%
%TD*%
%TA.AperFunction,ViaPad*%
%ADD30C,0.800000*%
%TD*%
%TA.AperFunction,Conductor*%
%ADD31C,0.700000*%
%TD*%
%TA.AperFunction,Conductor*%
%ADD32C,0.250000*%
%TD*%
G04 APERTURE END LIST*
D10*
D11*
X59878328Y-97964284D02*
X60878328Y-97964284D01*
X59306900Y-98321426D02*
X60378328Y-98678569D01*
X60378328Y-98678569D02*
X60378328Y-97749998D01*
X59378328Y-96464284D02*
X59378328Y-97178570D01*
X59378328Y-97178570D02*
X60092614Y-97249998D01*
X60092614Y-97249998D02*
X60021185Y-97178570D01*
X60021185Y-97178570D02*
X59949757Y-97035713D01*
X59949757Y-97035713D02*
X59949757Y-96678570D01*
X59949757Y-96678570D02*
X60021185Y-96535713D01*
X60021185Y-96535713D02*
X60092614Y-96464284D01*
X60092614Y-96464284D02*
X60235471Y-96392855D01*
X60235471Y-96392855D02*
X60592614Y-96392855D01*
X60592614Y-96392855D02*
X60735471Y-96464284D01*
X60735471Y-96464284D02*
X60806900Y-96535713D01*
X60806900Y-96535713D02*
X60878328Y-96678570D01*
X60878328Y-96678570D02*
X60878328Y-97035713D01*
X60878328Y-97035713D02*
X60806900Y-97178570D01*
X60806900Y-97178570D02*
X60735471Y-97249998D01*
X60735471Y-95749999D02*
X60806900Y-95678570D01*
X60806900Y-95678570D02*
X60878328Y-95749999D01*
X60878328Y-95749999D02*
X60806900Y-95821427D01*
X60806900Y-95821427D02*
X60735471Y-95749999D01*
X60735471Y-95749999D02*
X60878328Y-95749999D01*
X59378328Y-94321427D02*
X59378328Y-95035713D01*
X59378328Y-95035713D02*
X60092614Y-95107141D01*
X60092614Y-95107141D02*
X60021185Y-95035713D01*
X60021185Y-95035713D02*
X59949757Y-94892856D01*
X59949757Y-94892856D02*
X59949757Y-94535713D01*
X59949757Y-94535713D02*
X60021185Y-94392856D01*
X60021185Y-94392856D02*
X60092614Y-94321427D01*
X60092614Y-94321427D02*
X60235471Y-94249998D01*
X60235471Y-94249998D02*
X60592614Y-94249998D01*
X60592614Y-94249998D02*
X60735471Y-94321427D01*
X60735471Y-94321427D02*
X60806900Y-94392856D01*
X60806900Y-94392856D02*
X60878328Y-94535713D01*
X60878328Y-94535713D02*
X60878328Y-94892856D01*
X60878328Y-94892856D02*
X60806900Y-95035713D01*
X60806900Y-95035713D02*
X60735471Y-95107141D01*
X59378328Y-93321427D02*
X59378328Y-93178570D01*
X59378328Y-93178570D02*
X59449757Y-93035713D01*
X59449757Y-93035713D02*
X59521185Y-92964285D01*
X59521185Y-92964285D02*
X59664042Y-92892856D01*
X59664042Y-92892856D02*
X59949757Y-92821427D01*
X59949757Y-92821427D02*
X60306900Y-92821427D01*
X60306900Y-92821427D02*
X60592614Y-92892856D01*
X60592614Y-92892856D02*
X60735471Y-92964285D01*
X60735471Y-92964285D02*
X60806900Y-93035713D01*
X60806900Y-93035713D02*
X60878328Y-93178570D01*
X60878328Y-93178570D02*
X60878328Y-93321427D01*
X60878328Y-93321427D02*
X60806900Y-93464285D01*
X60806900Y-93464285D02*
X60735471Y-93535713D01*
X60735471Y-93535713D02*
X60592614Y-93607142D01*
X60592614Y-93607142D02*
X60306900Y-93678570D01*
X60306900Y-93678570D02*
X59949757Y-93678570D01*
X59949757Y-93678570D02*
X59664042Y-93607142D01*
X59664042Y-93607142D02*
X59521185Y-93535713D01*
X59521185Y-93535713D02*
X59449757Y-93464285D01*
X59449757Y-93464285D02*
X59378328Y-93321427D01*
X59378328Y-91892856D02*
X59378328Y-91749999D01*
X59378328Y-91749999D02*
X59449757Y-91607142D01*
X59449757Y-91607142D02*
X59521185Y-91535714D01*
X59521185Y-91535714D02*
X59664042Y-91464285D01*
X59664042Y-91464285D02*
X59949757Y-91392856D01*
X59949757Y-91392856D02*
X60306900Y-91392856D01*
X60306900Y-91392856D02*
X60592614Y-91464285D01*
X60592614Y-91464285D02*
X60735471Y-91535714D01*
X60735471Y-91535714D02*
X60806900Y-91607142D01*
X60806900Y-91607142D02*
X60878328Y-91749999D01*
X60878328Y-91749999D02*
X60878328Y-91892856D01*
X60878328Y-91892856D02*
X60806900Y-92035714D01*
X60806900Y-92035714D02*
X60735471Y-92107142D01*
X60735471Y-92107142D02*
X60592614Y-92178571D01*
X60592614Y-92178571D02*
X60306900Y-92249999D01*
X60306900Y-92249999D02*
X59949757Y-92249999D01*
X59949757Y-92249999D02*
X59664042Y-92178571D01*
X59664042Y-92178571D02*
X59521185Y-92107142D01*
X59521185Y-92107142D02*
X59449757Y-92035714D01*
X59449757Y-92035714D02*
X59378328Y-91892856D01*
X59378328Y-90464285D02*
X59378328Y-90321428D01*
X59378328Y-90321428D02*
X59449757Y-90178571D01*
X59449757Y-90178571D02*
X59521185Y-90107143D01*
X59521185Y-90107143D02*
X59664042Y-90035714D01*
X59664042Y-90035714D02*
X59949757Y-89964285D01*
X59949757Y-89964285D02*
X60306900Y-89964285D01*
X60306900Y-89964285D02*
X60592614Y-90035714D01*
X60592614Y-90035714D02*
X60735471Y-90107143D01*
X60735471Y-90107143D02*
X60806900Y-90178571D01*
X60806900Y-90178571D02*
X60878328Y-90321428D01*
X60878328Y-90321428D02*
X60878328Y-90464285D01*
X60878328Y-90464285D02*
X60806900Y-90607143D01*
X60806900Y-90607143D02*
X60735471Y-90678571D01*
X60735471Y-90678571D02*
X60592614Y-90750000D01*
X60592614Y-90750000D02*
X60306900Y-90821428D01*
X60306900Y-90821428D02*
X59949757Y-90821428D01*
X59949757Y-90821428D02*
X59664042Y-90750000D01*
X59664042Y-90750000D02*
X59521185Y-90678571D01*
X59521185Y-90678571D02*
X59449757Y-90607143D01*
X59449757Y-90607143D02*
X59378328Y-90464285D01*
X60878328Y-88178572D02*
X59878328Y-88178572D01*
X60021185Y-88178572D02*
X59949757Y-88107143D01*
X59949757Y-88107143D02*
X59878328Y-87964286D01*
X59878328Y-87964286D02*
X59878328Y-87750000D01*
X59878328Y-87750000D02*
X59949757Y-87607143D01*
X59949757Y-87607143D02*
X60092614Y-87535715D01*
X60092614Y-87535715D02*
X60878328Y-87535715D01*
X60092614Y-87535715D02*
X59949757Y-87464286D01*
X59949757Y-87464286D02*
X59878328Y-87321429D01*
X59878328Y-87321429D02*
X59878328Y-87107143D01*
X59878328Y-87107143D02*
X59949757Y-86964286D01*
X59949757Y-86964286D02*
X60092614Y-86892857D01*
X60092614Y-86892857D02*
X60878328Y-86892857D01*
X60878328Y-86178572D02*
X59878328Y-86178572D01*
X60021185Y-86178572D02*
X59949757Y-86107143D01*
X59949757Y-86107143D02*
X59878328Y-85964286D01*
X59878328Y-85964286D02*
X59878328Y-85750000D01*
X59878328Y-85750000D02*
X59949757Y-85607143D01*
X59949757Y-85607143D02*
X60092614Y-85535715D01*
X60092614Y-85535715D02*
X60878328Y-85535715D01*
X60092614Y-85535715D02*
X59949757Y-85464286D01*
X59949757Y-85464286D02*
X59878328Y-85321429D01*
X59878328Y-85321429D02*
X59878328Y-85107143D01*
X59878328Y-85107143D02*
X59949757Y-84964286D01*
X59949757Y-84964286D02*
X60092614Y-84892857D01*
X60092614Y-84892857D02*
X60878328Y-84892857D01*
D12*
X74500000Y-114500000D02*
X61413580Y-114500000D01*
X74500000Y-69000000D02*
X61413580Y-69000000D01*
X62000000Y-114500000D02*
X62000000Y-69000000D01*
X62000000Y-114500000D02*
X61413579Y-113373496D01*
X62000000Y-114500000D02*
X62586421Y-113373496D01*
X62000000Y-69000000D02*
X62586421Y-70126504D01*
X62000000Y-69000000D02*
X61413579Y-70126504D01*
D10*
D11*
X100535716Y-52878328D02*
X100250001Y-52878328D01*
X100250001Y-52878328D02*
X100107144Y-52949757D01*
X100107144Y-52949757D02*
X100035716Y-53021185D01*
X100035716Y-53021185D02*
X99892858Y-53235471D01*
X99892858Y-53235471D02*
X99821430Y-53521185D01*
X99821430Y-53521185D02*
X99821430Y-54092614D01*
X99821430Y-54092614D02*
X99892858Y-54235471D01*
X99892858Y-54235471D02*
X99964287Y-54306900D01*
X99964287Y-54306900D02*
X100107144Y-54378328D01*
X100107144Y-54378328D02*
X100392858Y-54378328D01*
X100392858Y-54378328D02*
X100535716Y-54306900D01*
X100535716Y-54306900D02*
X100607144Y-54235471D01*
X100607144Y-54235471D02*
X100678573Y-54092614D01*
X100678573Y-54092614D02*
X100678573Y-53735471D01*
X100678573Y-53735471D02*
X100607144Y-53592614D01*
X100607144Y-53592614D02*
X100535716Y-53521185D01*
X100535716Y-53521185D02*
X100392858Y-53449757D01*
X100392858Y-53449757D02*
X100107144Y-53449757D01*
X100107144Y-53449757D02*
X99964287Y-53521185D01*
X99964287Y-53521185D02*
X99892858Y-53592614D01*
X99892858Y-53592614D02*
X99821430Y-53735471D01*
X101178572Y-52878328D02*
X102107144Y-52878328D01*
X102107144Y-52878328D02*
X101607144Y-53449757D01*
X101607144Y-53449757D02*
X101821429Y-53449757D01*
X101821429Y-53449757D02*
X101964287Y-53521185D01*
X101964287Y-53521185D02*
X102035715Y-53592614D01*
X102035715Y-53592614D02*
X102107144Y-53735471D01*
X102107144Y-53735471D02*
X102107144Y-54092614D01*
X102107144Y-54092614D02*
X102035715Y-54235471D01*
X102035715Y-54235471D02*
X101964287Y-54306900D01*
X101964287Y-54306900D02*
X101821429Y-54378328D01*
X101821429Y-54378328D02*
X101392858Y-54378328D01*
X101392858Y-54378328D02*
X101250001Y-54306900D01*
X101250001Y-54306900D02*
X101178572Y-54235471D01*
X102750000Y-54235471D02*
X102821429Y-54306900D01*
X102821429Y-54306900D02*
X102750000Y-54378328D01*
X102750000Y-54378328D02*
X102678572Y-54306900D01*
X102678572Y-54306900D02*
X102750000Y-54235471D01*
X102750000Y-54235471D02*
X102750000Y-54378328D01*
X104178572Y-52878328D02*
X103464286Y-52878328D01*
X103464286Y-52878328D02*
X103392858Y-53592614D01*
X103392858Y-53592614D02*
X103464286Y-53521185D01*
X103464286Y-53521185D02*
X103607144Y-53449757D01*
X103607144Y-53449757D02*
X103964286Y-53449757D01*
X103964286Y-53449757D02*
X104107144Y-53521185D01*
X104107144Y-53521185D02*
X104178572Y-53592614D01*
X104178572Y-53592614D02*
X104250001Y-53735471D01*
X104250001Y-53735471D02*
X104250001Y-54092614D01*
X104250001Y-54092614D02*
X104178572Y-54235471D01*
X104178572Y-54235471D02*
X104107144Y-54306900D01*
X104107144Y-54306900D02*
X103964286Y-54378328D01*
X103964286Y-54378328D02*
X103607144Y-54378328D01*
X103607144Y-54378328D02*
X103464286Y-54306900D01*
X103464286Y-54306900D02*
X103392858Y-54235471D01*
X105178572Y-52878328D02*
X105321429Y-52878328D01*
X105321429Y-52878328D02*
X105464286Y-52949757D01*
X105464286Y-52949757D02*
X105535715Y-53021185D01*
X105535715Y-53021185D02*
X105607143Y-53164042D01*
X105607143Y-53164042D02*
X105678572Y-53449757D01*
X105678572Y-53449757D02*
X105678572Y-53806900D01*
X105678572Y-53806900D02*
X105607143Y-54092614D01*
X105607143Y-54092614D02*
X105535715Y-54235471D01*
X105535715Y-54235471D02*
X105464286Y-54306900D01*
X105464286Y-54306900D02*
X105321429Y-54378328D01*
X105321429Y-54378328D02*
X105178572Y-54378328D01*
X105178572Y-54378328D02*
X105035715Y-54306900D01*
X105035715Y-54306900D02*
X104964286Y-54235471D01*
X104964286Y-54235471D02*
X104892857Y-54092614D01*
X104892857Y-54092614D02*
X104821429Y-53806900D01*
X104821429Y-53806900D02*
X104821429Y-53449757D01*
X104821429Y-53449757D02*
X104892857Y-53164042D01*
X104892857Y-53164042D02*
X104964286Y-53021185D01*
X104964286Y-53021185D02*
X105035715Y-52949757D01*
X105035715Y-52949757D02*
X105178572Y-52878328D01*
X106607143Y-52878328D02*
X106750000Y-52878328D01*
X106750000Y-52878328D02*
X106892857Y-52949757D01*
X106892857Y-52949757D02*
X106964286Y-53021185D01*
X106964286Y-53021185D02*
X107035714Y-53164042D01*
X107035714Y-53164042D02*
X107107143Y-53449757D01*
X107107143Y-53449757D02*
X107107143Y-53806900D01*
X107107143Y-53806900D02*
X107035714Y-54092614D01*
X107035714Y-54092614D02*
X106964286Y-54235471D01*
X106964286Y-54235471D02*
X106892857Y-54306900D01*
X106892857Y-54306900D02*
X106750000Y-54378328D01*
X106750000Y-54378328D02*
X106607143Y-54378328D01*
X106607143Y-54378328D02*
X106464286Y-54306900D01*
X106464286Y-54306900D02*
X106392857Y-54235471D01*
X106392857Y-54235471D02*
X106321428Y-54092614D01*
X106321428Y-54092614D02*
X106250000Y-53806900D01*
X106250000Y-53806900D02*
X106250000Y-53449757D01*
X106250000Y-53449757D02*
X106321428Y-53164042D01*
X106321428Y-53164042D02*
X106392857Y-53021185D01*
X106392857Y-53021185D02*
X106464286Y-52949757D01*
X106464286Y-52949757D02*
X106607143Y-52878328D01*
X108035714Y-52878328D02*
X108178571Y-52878328D01*
X108178571Y-52878328D02*
X108321428Y-52949757D01*
X108321428Y-52949757D02*
X108392857Y-53021185D01*
X108392857Y-53021185D02*
X108464285Y-53164042D01*
X108464285Y-53164042D02*
X108535714Y-53449757D01*
X108535714Y-53449757D02*
X108535714Y-53806900D01*
X108535714Y-53806900D02*
X108464285Y-54092614D01*
X108464285Y-54092614D02*
X108392857Y-54235471D01*
X108392857Y-54235471D02*
X108321428Y-54306900D01*
X108321428Y-54306900D02*
X108178571Y-54378328D01*
X108178571Y-54378328D02*
X108035714Y-54378328D01*
X108035714Y-54378328D02*
X107892857Y-54306900D01*
X107892857Y-54306900D02*
X107821428Y-54235471D01*
X107821428Y-54235471D02*
X107749999Y-54092614D01*
X107749999Y-54092614D02*
X107678571Y-53806900D01*
X107678571Y-53806900D02*
X107678571Y-53449757D01*
X107678571Y-53449757D02*
X107749999Y-53164042D01*
X107749999Y-53164042D02*
X107821428Y-53021185D01*
X107821428Y-53021185D02*
X107892857Y-52949757D01*
X107892857Y-52949757D02*
X108035714Y-52878328D01*
X110321427Y-54378328D02*
X110321427Y-53378328D01*
X110321427Y-53521185D02*
X110392856Y-53449757D01*
X110392856Y-53449757D02*
X110535713Y-53378328D01*
X110535713Y-53378328D02*
X110749999Y-53378328D01*
X110749999Y-53378328D02*
X110892856Y-53449757D01*
X110892856Y-53449757D02*
X110964285Y-53592614D01*
X110964285Y-53592614D02*
X110964285Y-54378328D01*
X110964285Y-53592614D02*
X111035713Y-53449757D01*
X111035713Y-53449757D02*
X111178570Y-53378328D01*
X111178570Y-53378328D02*
X111392856Y-53378328D01*
X111392856Y-53378328D02*
X111535713Y-53449757D01*
X111535713Y-53449757D02*
X111607142Y-53592614D01*
X111607142Y-53592614D02*
X111607142Y-54378328D01*
X112321427Y-54378328D02*
X112321427Y-53378328D01*
X112321427Y-53521185D02*
X112392856Y-53449757D01*
X112392856Y-53449757D02*
X112535713Y-53378328D01*
X112535713Y-53378328D02*
X112749999Y-53378328D01*
X112749999Y-53378328D02*
X112892856Y-53449757D01*
X112892856Y-53449757D02*
X112964285Y-53592614D01*
X112964285Y-53592614D02*
X112964285Y-54378328D01*
X112964285Y-53592614D02*
X113035713Y-53449757D01*
X113035713Y-53449757D02*
X113178570Y-53378328D01*
X113178570Y-53378328D02*
X113392856Y-53378328D01*
X113392856Y-53378328D02*
X113535713Y-53449757D01*
X113535713Y-53449757D02*
X113607142Y-53592614D01*
X113607142Y-53592614D02*
X113607142Y-54378328D01*
D12*
X75000000Y-68500000D02*
X75000000Y-54913580D01*
X138500000Y-68500000D02*
X138500000Y-54913580D01*
X75000000Y-55500000D02*
X138500000Y-55500000D01*
X75000000Y-55500000D02*
X76126504Y-54913579D01*
X75000000Y-55500000D02*
X76126504Y-56086421D01*
X138500000Y-55500000D02*
X137373496Y-56086421D01*
X138500000Y-55500000D02*
X137373496Y-54913579D01*
D13*
%TO.P,Q4,1,B*%
%TO.N,Net-(Q4-B)*%
X133000000Y-82400000D03*
%TO.P,Q4,2,E*%
%TO.N,/VDD*%
X133000000Y-80500000D03*
%TO.P,Q4,3,C*%
%TO.N,/Power/Control*%
X131125000Y-81450000D03*
%TD*%
D14*
%TO.P,R9,1*%
%TO.N,Net-(U2-+)*%
X117500000Y-98350000D03*
%TO.P,R9,2*%
%TO.N,/VDD*%
X117500000Y-100000000D03*
%TD*%
D15*
%TO.P,R7,1*%
%TO.N,/VADC*%
X114500000Y-84037500D03*
%TO.P,R7,2*%
%TO.N,Net-(U1-RA3)*%
X114500000Y-86962500D03*
%TD*%
D16*
%TO.P,R11,1*%
%TO.N,Net-(U2--)*%
X121587500Y-93500000D03*
%TO.P,R11,2*%
%TO.N,/VADC*%
X123412500Y-93500000D03*
%TD*%
D15*
%TO.P,R8,1*%
%TO.N,Net-(U1-RA3)*%
X114500000Y-90500000D03*
%TO.P,R8,2*%
%TO.N,GND*%
X114500000Y-93425000D03*
%TD*%
D17*
%TO.P,J2,1,Pin_1*%
%TO.N,/VADC*%
X137000000Y-90725000D03*
D18*
%TO.P,J2,2,Pin_2*%
%TO.N,GND*%
X137000000Y-93265000D03*
%TD*%
D15*
%TO.P,R4,1*%
%TO.N,Net-(Q4-B)*%
X127500000Y-86075000D03*
%TO.P,R4,2*%
%TO.N,Net-(BZG05C5V1-M3-08-K)*%
X127500000Y-89000000D03*
%TD*%
D19*
%TO.P,R1,1*%
%TO.N,/VDD*%
X118500000Y-84490000D03*
%TO.P,R1,2*%
%TO.N,Net-(Q1-B)*%
X118500000Y-85510000D03*
%TD*%
D20*
%TO.P,LED2,1,K*%
%TO.N,GND*%
X116775000Y-109000000D03*
D21*
%TO.P,LED2,2,A*%
%TO.N,Net-(LED2-A)*%
X114235000Y-109000000D03*
%TD*%
D22*
%TO.P,Dz,1,K*%
%TO.N,Net-(BZG05C5V1-M3-08-K)*%
X127500000Y-91680000D03*
%TO.P,Dz,2,A*%
%TO.N,/VADC*%
X127500000Y-92320000D03*
%TD*%
D23*
%TO.P,Q2,1,B*%
%TO.N,Net-(Q2-B)*%
X127625000Y-97149998D03*
%TO.P,Q2,2,E*%
%TO.N,/VDD*%
X127625000Y-99049998D03*
%TO.P,Q2,3,C*%
%TO.N,/Power/Control*%
X129500000Y-98099998D03*
%TD*%
D15*
%TO.P,R3,1*%
%TO.N,/VDD*%
X127500000Y-80000000D03*
%TO.P,R3,2*%
%TO.N,Net-(Q4-B)*%
X127500000Y-82925000D03*
%TD*%
D24*
%TO.P,R10,1*%
%TO.N,Net-(U2-+)*%
X117500000Y-96150000D03*
%TO.P,R10,2*%
%TO.N,GND*%
X117500000Y-94500000D03*
%TD*%
D25*
%TO.P,R2,1*%
%TO.N,/Power/Control*%
X115325000Y-79500000D03*
%TO.P,R2,2*%
%TO.N,/nEN*%
X113675000Y-79500000D03*
%TD*%
D13*
%TO.P,Q1,1,B*%
%TO.N,Net-(Q1-B)*%
X122387500Y-81950000D03*
%TO.P,Q1,2,E*%
%TO.N,/VDD*%
X122387500Y-80050000D03*
%TO.P,Q1,3,C*%
%TO.N,/Power/Control*%
X120512500Y-81000000D03*
%TD*%
D26*
%TO.P,U2,1,+*%
%TO.N,Net-(U2-+)*%
X121549999Y-99415249D03*
%TO.P,U2,2,-*%
%TO.N,Net-(U2--)*%
X122500000Y-99415249D03*
%TO.P,U2,3,V+*%
%TO.N,/VDD*%
X123450001Y-99415249D03*
%TO.P,U2,4,V-*%
%TO.N,GND*%
X123450001Y-96684749D03*
%TO.P,U2,5*%
%TO.N,Net-(Q2-B)*%
X121549999Y-96684749D03*
%TD*%
D27*
%TO.P,J1,1,VBUS*%
%TO.N,/VDD*%
X90240000Y-88500000D03*
%TO.P,J1,2,D-*%
%TO.N,unconnected-(J1-D--Pad2)*%
X90240000Y-91000000D03*
%TO.P,J1,3,D+*%
%TO.N,unconnected-(J1-D+-Pad3)*%
X90240000Y-93000000D03*
%TO.P,J1,4,GND*%
%TO.N,GND*%
X90240000Y-95500000D03*
D28*
%TO.P,J1,5,Shield*%
X86540000Y-85600000D03*
X86540000Y-98400000D03*
%TD*%
D20*
%TO.P,LED1,1,K*%
%TO.N,GND*%
X91725000Y-108500000D03*
D21*
%TO.P,LED1,2,A*%
%TO.N,Net-(LED1-A)*%
X94265000Y-108500000D03*
%TD*%
D13*
%TO.P,Q3,1,C*%
%TO.N,/VADC*%
X122437500Y-89450000D03*
%TO.P,Q3,2,B*%
%TO.N,/Power/Control*%
X122437500Y-87550000D03*
%TO.P,Q3,3,E*%
%TO.N,Net-(Q1-B)*%
X120562500Y-88500000D03*
%TD*%
D17*
%TO.P,J3,1,Pin_1*%
%TO.N,/MCLR*%
X109540000Y-79500000D03*
D18*
%TO.P,J3,2,Pin_2*%
%TO.N,/VDD*%
X107000000Y-79500000D03*
%TO.P,J3,3,Pin_3*%
%TO.N,GND*%
X104460000Y-79500000D03*
%TO.P,J3,4,Pin_4*%
%TO.N,/PGD*%
X101920000Y-79500000D03*
%TO.P,J3,5,Pin_5*%
%TO.N,/PGC*%
X99380000Y-79500000D03*
%TD*%
D29*
%TO.N,/VDD*%
X93500000Y-89000000D03*
X103000000Y-92374999D03*
X118500000Y-82000000D03*
X120918750Y-78581250D03*
%TO.N,GND*%
X112000000Y-93000000D03*
X125500000Y-95000000D03*
X119500000Y-95000000D03*
X93500000Y-95500000D03*
D30*
%TO.N,/Power/Control*%
X124500000Y-87500000D03*
X132000000Y-97000000D03*
D29*
%TO.N,Net-(Q1-B)*%
X124500000Y-83500000D03*
X121500000Y-84500000D03*
D30*
%TO.N,/nEN*%
X107500000Y-89000000D03*
%TO.N,Net-(Q2-B)*%
X119500000Y-97000000D03*
X125500000Y-97500000D03*
%TO.N,Net-(U1-RA3)*%
X112000000Y-89500000D03*
%TD*%
D31*
%TO.N,/VADC*%
X116500000Y-86037500D02*
X116500000Y-89000000D01*
X127500000Y-92460000D02*
X128960000Y-92460000D01*
X125487500Y-92500000D02*
X127460000Y-92500000D01*
X128960000Y-92460000D02*
X129000000Y-92500000D01*
X114500000Y-84037500D02*
X116500000Y-86037500D01*
X124487500Y-93500000D02*
X125487500Y-92500000D01*
X127460000Y-92500000D02*
X127500000Y-92460000D01*
X129000000Y-92500000D02*
X130000000Y-92500000D01*
X121887500Y-90000000D02*
X122437500Y-89450000D01*
X123412500Y-93500000D02*
X124487500Y-93500000D01*
X117500000Y-90000000D02*
X121887500Y-90000000D01*
X131775000Y-90725000D02*
X137000000Y-90725000D01*
X130000000Y-92500000D02*
X131775000Y-90725000D01*
X122437500Y-89450000D02*
X125487500Y-92500000D01*
X116500000Y-89000000D02*
X117500000Y-90000000D01*
%TO.N,/VDD*%
X119000000Y-101500000D02*
X122554200Y-101500000D01*
X118500000Y-84490000D02*
X118500000Y-82000000D01*
X117500000Y-100000000D02*
X110625001Y-100000000D01*
X107500000Y-77500000D02*
X119837500Y-77500000D01*
X110625001Y-100000000D02*
X103000000Y-92374999D01*
X107000000Y-78000000D02*
X107500000Y-77500000D01*
X119837500Y-77500000D02*
X120918750Y-78581250D01*
X123450001Y-99415249D02*
X127259749Y-99415249D01*
X122554200Y-101500000D02*
X123450001Y-100604199D01*
X93000000Y-88500000D02*
X93500000Y-89000000D01*
X127450000Y-80050000D02*
X127500000Y-80000000D01*
X90240000Y-88500000D02*
X93000000Y-88500000D01*
X120918750Y-78581250D02*
X122387500Y-80050000D01*
X132500000Y-80000000D02*
X133000000Y-80500000D01*
X122387500Y-80050000D02*
X127450000Y-80050000D01*
X117500000Y-100000000D02*
X119000000Y-101500000D01*
X127259749Y-99415249D02*
X127625000Y-99049998D01*
X127500000Y-80000000D02*
X132500000Y-80000000D01*
X123450001Y-100604199D02*
X123450001Y-99415249D01*
X107000000Y-79500000D02*
X107000000Y-78000000D01*
%TO.N,GND*%
X91725000Y-108500000D02*
X91725000Y-107775000D01*
X116425000Y-93425000D02*
X117500000Y-94500000D01*
X137000000Y-93265000D02*
X135765000Y-93265000D01*
X90240000Y-95500000D02*
X93500000Y-95500000D01*
X123815251Y-96684749D02*
X125500000Y-95000000D01*
X92500000Y-77500000D02*
X102460000Y-77500000D01*
X114500000Y-93425000D02*
X116425000Y-93425000D01*
X86540000Y-98400000D02*
X86540000Y-96460000D01*
X114075000Y-93000000D02*
X114500000Y-93425000D01*
X86540000Y-85600000D02*
X86540000Y-94540000D01*
X123450001Y-96684749D02*
X123815251Y-96684749D01*
X135500000Y-93000000D02*
X132500000Y-93000000D01*
X86540000Y-83460000D02*
X92500000Y-77500000D01*
X112000000Y-93000000D02*
X114075000Y-93000000D01*
X87500000Y-95500000D02*
X90240000Y-95500000D01*
X117500000Y-94500000D02*
X119000000Y-94500000D01*
X136765000Y-93500000D02*
X137000000Y-93265000D01*
X93000000Y-106500000D02*
X114275000Y-106500000D01*
X126000000Y-94500000D02*
X125500000Y-95000000D01*
X90500000Y-108500000D02*
X91725000Y-108500000D01*
X86540000Y-104540000D02*
X90500000Y-108500000D01*
X91725000Y-107775000D02*
X93000000Y-106500000D01*
X86540000Y-98400000D02*
X86540000Y-104540000D01*
X86540000Y-94540000D02*
X87500000Y-95500000D01*
X114275000Y-106500000D02*
X116775000Y-109000000D01*
X86540000Y-96460000D02*
X87500000Y-95500000D01*
X132500000Y-93000000D02*
X131000000Y-94500000D01*
X102460000Y-77500000D02*
X104460000Y-79500000D01*
X135765000Y-93265000D02*
X135500000Y-93000000D01*
X131000000Y-94500000D02*
X126000000Y-94500000D01*
X86540000Y-85600000D02*
X86540000Y-83460000D01*
X119000000Y-94500000D02*
X119500000Y-95000000D01*
D32*
%TO.N,/Power/Control*%
X120512500Y-82012500D02*
X121500000Y-83000000D01*
X130900002Y-98099998D02*
X132000000Y-97000000D01*
X120512500Y-81000000D02*
X120512500Y-82012500D01*
X125000000Y-81500000D02*
X126000000Y-81500000D01*
X119012500Y-79500000D02*
X120512500Y-81000000D01*
X120512500Y-81000000D02*
X124500000Y-81000000D01*
X123000000Y-83500000D02*
X123000000Y-86987500D01*
X122487500Y-87500000D02*
X122437500Y-87550000D01*
X121500000Y-83000000D02*
X122500000Y-83000000D01*
X126000000Y-81500000D02*
X126050000Y-81450000D01*
X115325000Y-79500000D02*
X119012500Y-79500000D01*
X129500000Y-98099998D02*
X130900002Y-98099998D01*
X124500000Y-81000000D02*
X125000000Y-81500000D01*
X123000000Y-86987500D02*
X122437500Y-87550000D01*
X122500000Y-83000000D02*
X123000000Y-83500000D01*
X126050000Y-81450000D02*
X131125000Y-81450000D01*
X124500000Y-87500000D02*
X122487500Y-87500000D01*
%TO.N,Net-(Q4-B)*%
X132475000Y-82925000D02*
X133000000Y-82400000D01*
X127500000Y-82925000D02*
X127500000Y-86075000D01*
X127500000Y-82925000D02*
X132475000Y-82925000D01*
D31*
%TO.N,Net-(Q1-B)*%
X118500000Y-85510000D02*
X118500000Y-86437500D01*
X118500000Y-86437500D02*
X120562500Y-88500000D01*
X124500000Y-83500000D02*
X122950000Y-81950000D01*
X120490000Y-85510000D02*
X121500000Y-84500000D01*
X122950000Y-81950000D02*
X122387500Y-81950000D01*
X118500000Y-85510000D02*
X120490000Y-85510000D01*
D32*
%TO.N,/nEN*%
X112500000Y-80675000D02*
X113675000Y-79500000D01*
X112000000Y-82000000D02*
X110000000Y-82000000D01*
X110000000Y-82000000D02*
X108000000Y-82000000D01*
X112500000Y-81500000D02*
X112000000Y-82000000D01*
X112500000Y-81500000D02*
X112500000Y-80675000D01*
X107500000Y-82500000D02*
X107500000Y-89000000D01*
X108000000Y-82000000D02*
X107500000Y-82500000D01*
%TO.N,Net-(BZG05C5V1-M3-08-K)*%
X127500000Y-89000000D02*
X127500000Y-91680000D01*
%TO.N,Net-(Q2-B)*%
X120500000Y-96000000D02*
X119500000Y-97000000D01*
X121549999Y-96684749D02*
X121549999Y-96549999D01*
X125500000Y-97500000D02*
X127274998Y-97500000D01*
X121549999Y-96549999D02*
X121000000Y-96000000D01*
X121000000Y-96000000D02*
X120500000Y-96000000D01*
X127274998Y-97500000D02*
X127625000Y-97149998D01*
%TO.N,Net-(U1-RA3)*%
X114500000Y-86962500D02*
X114500000Y-90500000D01*
X112000000Y-89500000D02*
X113000000Y-90500000D01*
X113000000Y-90500000D02*
X114500000Y-90500000D01*
%TO.N,Net-(U2-+)*%
X117500000Y-98350000D02*
X120484750Y-98350000D01*
X120484750Y-98350000D02*
X121549999Y-99415249D01*
X121549999Y-99049999D02*
X121549999Y-99415249D01*
X117500000Y-96150000D02*
X117500000Y-98350000D01*
%TO.N,Net-(U2--)*%
X121587500Y-93500000D02*
X121587500Y-94087500D01*
X122500000Y-95000000D02*
X122500000Y-99415249D01*
X121587500Y-94087500D02*
X122500000Y-95000000D01*
%TD*%
%TA.AperFunction,Conductor*%
%TO.N,Net-(BZG05C5V1-M3-08-K)*%
G36*
X127624204Y-91253427D02*
G01*
X127627261Y-91258783D01*
X127690597Y-91504775D01*
X127689342Y-91513641D01*
X127686995Y-91516476D01*
X127507728Y-91674200D01*
X127499254Y-91677092D01*
X127492272Y-91674200D01*
X127313004Y-91516476D01*
X127309056Y-91508438D01*
X127309401Y-91504782D01*
X127372739Y-91258783D01*
X127378120Y-91251625D01*
X127384069Y-91250000D01*
X127615931Y-91250000D01*
X127624204Y-91253427D01*
G37*
%TD.AperFunction*%
%TD*%
%TA.AperFunction,Conductor*%
%TO.N,Net-(Q2-B)*%
G36*
X125680696Y-97140890D02*
G01*
X126292437Y-97372141D01*
X126298964Y-97378272D01*
X126300000Y-97383085D01*
X126300000Y-97616914D01*
X126296573Y-97625187D01*
X126292437Y-97627858D01*
X125663655Y-97865551D01*
X125654705Y-97865271D01*
X125648719Y-97859109D01*
X125552306Y-97627858D01*
X125500875Y-97504499D01*
X125500855Y-97495550D01*
X125648719Y-97140889D01*
X125655066Y-97134572D01*
X125663654Y-97134448D01*
X125680696Y-97140890D01*
G37*
%TD.AperFunction*%
%TD*%
%TA.AperFunction,Conductor*%
%TO.N,Net-(Q1-B)*%
G36*
X123906911Y-82409170D02*
G01*
X124721487Y-82940375D01*
X124726545Y-82947764D01*
X124725912Y-82954636D01*
X124502562Y-83496207D01*
X124496240Y-83502548D01*
X124496207Y-83502562D01*
X123954636Y-83725912D01*
X123945681Y-83725898D01*
X123940375Y-83721487D01*
X123409170Y-82906911D01*
X123407521Y-82898109D01*
X123410695Y-82892249D01*
X123892248Y-82410696D01*
X123900520Y-82407270D01*
X123906911Y-82409170D01*
G37*
%TD.AperFunction*%
%TD*%
%TA.AperFunction,Conductor*%
%TO.N,/VDD*%
G36*
X119045375Y-82225885D02*
G01*
X119051697Y-82232226D01*
X119052330Y-82239098D01*
X118851956Y-83190711D01*
X118846898Y-83198100D01*
X118840507Y-83200000D01*
X118159493Y-83200000D01*
X118151220Y-83196573D01*
X118148044Y-83190711D01*
X117947669Y-82239095D01*
X117949318Y-82230296D01*
X117954622Y-82225886D01*
X118495507Y-82000868D01*
X118504458Y-82000855D01*
X119045375Y-82225885D01*
G37*
%TD.AperFunction*%
%TD*%
%TA.AperFunction,Conductor*%
%TO.N,/Power/Control*%
G36*
X121162064Y-80713360D02*
G01*
X121542800Y-80872000D01*
X121549119Y-80878345D01*
X121550000Y-80882800D01*
X121550000Y-81117199D01*
X121546573Y-81125472D01*
X121542800Y-81127999D01*
X121162064Y-81286639D01*
X121153109Y-81286658D01*
X121152791Y-81286521D01*
X120535408Y-81010682D01*
X120529253Y-81004179D01*
X120529499Y-80995227D01*
X120535408Y-80989318D01*
X121152792Y-80713477D01*
X121161743Y-80713232D01*
X121162064Y-80713360D01*
G37*
%TD.AperFunction*%
%TD*%
%TA.AperFunction,Conductor*%
%TO.N,/Power/Control*%
G36*
X124345294Y-87134728D02*
G01*
X124351280Y-87140890D01*
X124499123Y-87495498D01*
X124499144Y-87504452D01*
X124499123Y-87504502D01*
X124351280Y-87859109D01*
X124344933Y-87865427D01*
X124336344Y-87865551D01*
X123707563Y-87627858D01*
X123701036Y-87621727D01*
X123700000Y-87616914D01*
X123700000Y-87383085D01*
X123703427Y-87374812D01*
X123707563Y-87372141D01*
X124336345Y-87134448D01*
X124345294Y-87134728D01*
G37*
%TD.AperFunction*%
%TD*%
%TA.AperFunction,Conductor*%
%TO.N,/Power/Control*%
G36*
X115685773Y-79105149D02*
G01*
X115689390Y-79107371D01*
X116119426Y-79371575D01*
X116124680Y-79378825D01*
X116125000Y-79381543D01*
X116125000Y-79618456D01*
X116121573Y-79626729D01*
X116119425Y-79628425D01*
X115685773Y-79894850D01*
X115676930Y-79896261D01*
X115670880Y-79892628D01*
X115330844Y-79507747D01*
X115327934Y-79499278D01*
X115330844Y-79492253D01*
X115670881Y-79107370D01*
X115678926Y-79103440D01*
X115685773Y-79105149D01*
G37*
%TD.AperFunction*%
%TD*%
%TA.AperFunction,Conductor*%
%TO.N,/VADC*%
G36*
X115368669Y-84116424D02*
G01*
X115376593Y-84120590D01*
X115377957Y-84122632D01*
X115703727Y-84742635D01*
X115704542Y-84751553D01*
X115701643Y-84756350D01*
X115219616Y-85238377D01*
X115211343Y-85241804D01*
X115204750Y-85239769D01*
X114489145Y-84751553D01*
X114274846Y-84605349D01*
X114269943Y-84597856D01*
X114270623Y-84591226D01*
X114496003Y-84044768D01*
X114502324Y-84038428D01*
X114507885Y-84037580D01*
X115368669Y-84116424D01*
G37*
%TD.AperFunction*%
%TD*%
%TA.AperFunction,Conductor*%
%TO.N,/VDD*%
G36*
X103554318Y-92149100D02*
G01*
X103559624Y-92153511D01*
X104090829Y-92968087D01*
X104092478Y-92976889D01*
X104089302Y-92982751D01*
X103607752Y-93464301D01*
X103599479Y-93467728D01*
X103593088Y-93465828D01*
X102778512Y-92934623D01*
X102773454Y-92927234D01*
X102774087Y-92920362D01*
X102997437Y-92378790D01*
X103003759Y-92372450D01*
X103545363Y-92149086D01*
X103554318Y-92149100D01*
G37*
%TD.AperFunction*%
%TD*%
%TA.AperFunction,Conductor*%
%TO.N,/Power/Control*%
G36*
X130149564Y-97813358D02*
G01*
X130530300Y-97971998D01*
X130536619Y-97978343D01*
X130537500Y-97982798D01*
X130537500Y-98217197D01*
X130534073Y-98225470D01*
X130530300Y-98227997D01*
X130149564Y-98386637D01*
X130140609Y-98386656D01*
X130140291Y-98386519D01*
X129522908Y-98110680D01*
X129516753Y-98104177D01*
X129516999Y-98095225D01*
X129522908Y-98089316D01*
X130140292Y-97813475D01*
X130149243Y-97813230D01*
X130149564Y-97813358D01*
G37*
%TD.AperFunction*%
%TD*%
%TA.AperFunction,Conductor*%
%TO.N,Net-(U2-+)*%
G36*
X121210638Y-98894154D02*
G01*
X121412695Y-98925139D01*
X121420354Y-98929780D01*
X121422228Y-98933692D01*
X121548059Y-99406022D01*
X121546877Y-99414899D01*
X121541194Y-99419858D01*
X121305335Y-99516628D01*
X121296380Y-99516598D01*
X121290839Y-99511786D01*
X121227516Y-99405358D01*
X121032657Y-99077851D01*
X121031373Y-99068991D01*
X121034438Y-99063600D01*
X121200593Y-98897445D01*
X121208865Y-98894019D01*
X121210638Y-98894154D01*
G37*
%TD.AperFunction*%
%TD*%
%TA.AperFunction,Conductor*%
%TO.N,/Power/Control*%
G36*
X131640909Y-96851232D02*
G01*
X131783763Y-96910018D01*
X131996195Y-96997436D01*
X132002542Y-97003754D01*
X132002563Y-97003804D01*
X132148767Y-97359090D01*
X132148746Y-97368044D01*
X132142760Y-97374206D01*
X131530071Y-97650747D01*
X131521121Y-97651027D01*
X131516985Y-97648356D01*
X131351643Y-97483014D01*
X131348216Y-97474741D01*
X131349252Y-97469928D01*
X131395238Y-97368044D01*
X131625794Y-96857238D01*
X131632320Y-96851108D01*
X131640909Y-96851232D01*
G37*
%TD.AperFunction*%
%TD*%
%TA.AperFunction,Conductor*%
%TO.N,/Power/Control*%
G36*
X123466553Y-87372556D02*
G01*
X123473546Y-87378146D01*
X123475000Y-87383794D01*
X123475000Y-87617979D01*
X123471573Y-87626252D01*
X123468806Y-87628303D01*
X123118356Y-87815201D01*
X123109443Y-87816070D01*
X123108547Y-87815757D01*
X122462350Y-87560222D01*
X122455917Y-87553993D01*
X122455773Y-87545039D01*
X122461879Y-87538660D01*
X123078493Y-87263164D01*
X123086516Y-87262608D01*
X123466553Y-87372556D01*
G37*
%TD.AperFunction*%
%TD*%
%TA.AperFunction,Conductor*%
%TO.N,Net-(U2-+)*%
G36*
X117626729Y-97553427D02*
G01*
X117628425Y-97555575D01*
X117894850Y-97989225D01*
X117896261Y-97998068D01*
X117892628Y-98004118D01*
X117507747Y-98344155D01*
X117499278Y-98347065D01*
X117492253Y-98344155D01*
X117107371Y-98004118D01*
X117103440Y-97996072D01*
X117105149Y-97989225D01*
X117371575Y-97555575D01*
X117378826Y-97550320D01*
X117381544Y-97550000D01*
X117618456Y-97550000D01*
X117626729Y-97553427D01*
G37*
%TD.AperFunction*%
%TD*%
%TA.AperFunction,Conductor*%
%TO.N,/nEN*%
G36*
X113285315Y-79338561D02*
G01*
X113669844Y-79496879D01*
X113676189Y-79503197D01*
X113676885Y-79505523D01*
X113763908Y-79965602D01*
X113762079Y-79974367D01*
X113756829Y-79978610D01*
X113116279Y-80239759D01*
X113107324Y-80239709D01*
X113103589Y-80237198D01*
X112938110Y-80071719D01*
X112934683Y-80063446D01*
X112935787Y-80058485D01*
X113270268Y-79344417D01*
X113276879Y-79338380D01*
X113285315Y-79338561D01*
G37*
%TD.AperFunction*%
%TD*%
%TA.AperFunction,Conductor*%
%TO.N,GND*%
G36*
X125500707Y-94999293D02*
G01*
X125729610Y-95554328D01*
X124898960Y-96096015D01*
X124403985Y-95601040D01*
X124945672Y-94770390D01*
X125500707Y-94999293D01*
G37*
%TD.AperFunction*%
%TD*%
%TA.AperFunction,Conductor*%
%TO.N,/VDD*%
G36*
X117226776Y-99603290D02*
G01*
X117228848Y-99605577D01*
X117496414Y-99993355D01*
X117498292Y-100002111D01*
X117496414Y-100006645D01*
X117228848Y-100394422D01*
X117221329Y-100399285D01*
X117218246Y-100399437D01*
X116635728Y-100350894D01*
X116627768Y-100346792D01*
X116625000Y-100339234D01*
X116625000Y-99660766D01*
X116628427Y-99652493D01*
X116635728Y-99649106D01*
X117218248Y-99600562D01*
X117226776Y-99603290D01*
G37*
%TD.AperFunction*%
%TD*%
%TA.AperFunction,Conductor*%
%TO.N,Net-(U2--)*%
G36*
X122626092Y-98675726D02*
G01*
X122628251Y-98678701D01*
X122751281Y-98920946D01*
X122751972Y-98929874D01*
X122751236Y-98931629D01*
X122510387Y-99396213D01*
X122503537Y-99401981D01*
X122494615Y-99401215D01*
X122489613Y-99396213D01*
X122248763Y-98931629D01*
X122247997Y-98922707D01*
X122248715Y-98920952D01*
X122371749Y-98678701D01*
X122378551Y-98672876D01*
X122382181Y-98672299D01*
X122617819Y-98672299D01*
X122626092Y-98675726D01*
G37*
%TD.AperFunction*%
%TD*%
%TA.AperFunction,Conductor*%
%TO.N,/VADC*%
G36*
X136156401Y-89881394D02*
G01*
X136992712Y-90716722D01*
X136996144Y-90724993D01*
X136992722Y-90733268D01*
X136992712Y-90733278D01*
X136156401Y-91568605D01*
X136148126Y-91572027D01*
X136142201Y-91570412D01*
X135305768Y-91078392D01*
X135300374Y-91071243D01*
X135300000Y-91068307D01*
X135300000Y-90381692D01*
X135303427Y-90373419D01*
X135305768Y-90371607D01*
X136142202Y-89879586D01*
X136151069Y-89878346D01*
X136156401Y-89881394D01*
G37*
%TD.AperFunction*%
%TD*%
%TA.AperFunction,Conductor*%
%TO.N,/VDD*%
G36*
X92381902Y-88147379D02*
G01*
X92388718Y-88153187D01*
X92390000Y-88158511D01*
X92390000Y-88841488D01*
X92386573Y-88849761D01*
X92381902Y-88852620D01*
X91543824Y-89123820D01*
X91535152Y-89123232D01*
X90966407Y-88849761D01*
X90260927Y-88510543D01*
X90254957Y-88503871D01*
X90255454Y-88494930D01*
X90260927Y-88489456D01*
X91535154Y-87876766D01*
X91543822Y-87876179D01*
X92381902Y-88147379D01*
G37*
%TD.AperFunction*%
%TD*%
%TA.AperFunction,Conductor*%
%TO.N,Net-(U1-RA3)*%
G36*
X113785545Y-89961211D02*
G01*
X114488589Y-90490654D01*
X114493137Y-90498368D01*
X114490897Y-90507038D01*
X114488589Y-90509346D01*
X113785545Y-91038788D01*
X113776875Y-91041028D01*
X113772608Y-91039546D01*
X113068301Y-90628386D01*
X113062884Y-90621256D01*
X113062500Y-90618282D01*
X113062500Y-90381717D01*
X113065927Y-90373444D01*
X113068298Y-90371615D01*
X113772609Y-89960452D01*
X113781481Y-89959241D01*
X113785545Y-89961211D01*
G37*
%TD.AperFunction*%
%TD*%
%TA.AperFunction,Conductor*%
%TO.N,/VDD*%
G36*
X126773480Y-79465107D02*
G01*
X126775200Y-79466157D01*
X127093320Y-79700142D01*
X127488336Y-79990685D01*
X127492970Y-79998347D01*
X127490829Y-80007042D01*
X127488442Y-80009456D01*
X126783519Y-80540314D01*
X126774849Y-80542554D01*
X126774185Y-80542440D01*
X126071904Y-80401882D01*
X126064464Y-80396899D01*
X126062500Y-80390410D01*
X126062500Y-79708415D01*
X126065927Y-79700142D01*
X126070477Y-79697323D01*
X126764547Y-79464490D01*
X126773480Y-79465107D01*
G37*
%TD.AperFunction*%
%TD*%
%TA.AperFunction,Conductor*%
%TO.N,/VDD*%
G36*
X121473068Y-78355351D02*
G01*
X121478374Y-78359762D01*
X122009579Y-79174338D01*
X122011228Y-79183140D01*
X122008052Y-79189002D01*
X121526502Y-79670552D01*
X121518229Y-79673979D01*
X121511838Y-79672079D01*
X120697262Y-79140874D01*
X120692204Y-79133485D01*
X120692837Y-79126613D01*
X120916187Y-78585041D01*
X120922509Y-78578701D01*
X121464113Y-78355337D01*
X121473068Y-78355351D01*
G37*
%TD.AperFunction*%
%TD*%
%TA.AperFunction,Conductor*%
%TO.N,Net-(U1-RA3)*%
G36*
X114627551Y-89378427D02*
G01*
X114628513Y-89379517D01*
X115056164Y-89929354D01*
X115058539Y-89937988D01*
X115055209Y-89944803D01*
X114508280Y-90492705D01*
X114500010Y-90496139D01*
X114491734Y-90492719D01*
X114491720Y-90492705D01*
X113944790Y-89944803D01*
X113941370Y-89936527D01*
X113943834Y-89929355D01*
X114371487Y-89379517D01*
X114379271Y-89375090D01*
X114380722Y-89375000D01*
X114619278Y-89375000D01*
X114627551Y-89378427D01*
G37*
%TD.AperFunction*%
%TD*%
%TA.AperFunction,Conductor*%
%TO.N,GND*%
G36*
X119729610Y-94445672D02*
G01*
X119501000Y-95000000D01*
X119075736Y-95424264D01*
X118507106Y-94850000D01*
X118507106Y-94150000D01*
X119729610Y-94445672D01*
G37*
%TD.AperFunction*%
%TD*%
%TA.AperFunction,Conductor*%
%TO.N,Net-(Q4-B)*%
G36*
X128227391Y-82385453D02*
G01*
X128931699Y-82796613D01*
X128937116Y-82803743D01*
X128937500Y-82806717D01*
X128937500Y-83043282D01*
X128934073Y-83051555D01*
X128931699Y-83053386D01*
X128227391Y-83464546D01*
X128218518Y-83465758D01*
X128214454Y-83463788D01*
X127669483Y-83053386D01*
X127511409Y-82934345D01*
X127506862Y-82926632D01*
X127509102Y-82917962D01*
X127511408Y-82915655D01*
X128214455Y-82386210D01*
X128223124Y-82383971D01*
X128227391Y-82385453D01*
G37*
%TD.AperFunction*%
%TD*%
%TA.AperFunction,Conductor*%
%TO.N,Net-(Q4-B)*%
G36*
X127627551Y-84953427D02*
G01*
X127628513Y-84954517D01*
X128056164Y-85504354D01*
X128058539Y-85512988D01*
X128055209Y-85519803D01*
X127508280Y-86067705D01*
X127500010Y-86071139D01*
X127491734Y-86067719D01*
X127491720Y-86067705D01*
X126944790Y-85519803D01*
X126941370Y-85511527D01*
X126943834Y-85504355D01*
X127371487Y-84954517D01*
X127379271Y-84950090D01*
X127380722Y-84950000D01*
X127619278Y-84950000D01*
X127627551Y-84953427D01*
G37*
%TD.AperFunction*%
%TD*%
%TA.AperFunction,Conductor*%
%TO.N,Net-(Q2-B)*%
G36*
X121212551Y-96032474D02*
G01*
X121491376Y-96192840D01*
X121496839Y-96199935D01*
X121497172Y-96201695D01*
X121549666Y-96676060D01*
X121547170Y-96684660D01*
X121541738Y-96688446D01*
X121305834Y-96767103D01*
X121296901Y-96766469D01*
X121291560Y-96761014D01*
X121239859Y-96651900D01*
X121031535Y-96212232D01*
X121031090Y-96203291D01*
X121033834Y-96198954D01*
X121198446Y-96034342D01*
X121206718Y-96030916D01*
X121212551Y-96032474D01*
G37*
%TD.AperFunction*%
%TD*%
%TA.AperFunction,Conductor*%
%TO.N,/VDD*%
G36*
X106902478Y-77620789D02*
G01*
X106906089Y-77623247D01*
X107387099Y-78104257D01*
X107389796Y-78108461D01*
X107781380Y-79164158D01*
X107781044Y-79173107D01*
X107774892Y-79179034D01*
X107003780Y-79498846D01*
X106994825Y-79498850D01*
X106994809Y-79498844D01*
X106225681Y-79179280D01*
X106219356Y-79172941D01*
X106219365Y-79163986D01*
X106219405Y-79163890D01*
X106887085Y-77626857D01*
X106893524Y-77620636D01*
X106902478Y-77620789D01*
G37*
%TD.AperFunction*%
%TD*%
%TA.AperFunction,Conductor*%
%TO.N,/Power/Control*%
G36*
X120520758Y-81007285D02*
G01*
X120740382Y-81227642D01*
X120806144Y-81293623D01*
X120809557Y-81301901D01*
X120807963Y-81307777D01*
X120640886Y-81594195D01*
X120633758Y-81599615D01*
X120630780Y-81600000D01*
X120394220Y-81600000D01*
X120385947Y-81596573D01*
X120384114Y-81594195D01*
X120333990Y-81508269D01*
X120217035Y-81307775D01*
X120215827Y-81298904D01*
X120218853Y-81293624D01*
X120504214Y-81007313D01*
X120512481Y-81003873D01*
X120520758Y-81007285D01*
G37*
%TD.AperFunction*%
%TD*%
%TA.AperFunction,Conductor*%
%TO.N,/nEN*%
G36*
X107625188Y-88203427D02*
G01*
X107627859Y-88207563D01*
X107865551Y-88836344D01*
X107865271Y-88845294D01*
X107859109Y-88851280D01*
X107504502Y-88999123D01*
X107495548Y-88999144D01*
X107495498Y-88999123D01*
X107140890Y-88851280D01*
X107134572Y-88844933D01*
X107134448Y-88836345D01*
X107372141Y-88207562D01*
X107378272Y-88201036D01*
X107383085Y-88200000D01*
X107616915Y-88200000D01*
X107625188Y-88203427D01*
G37*
%TD.AperFunction*%
%TD*%
%TA.AperFunction,Conductor*%
%TO.N,Net-(U1-RA3)*%
G36*
X114508264Y-86969779D02*
G01*
X115055209Y-87517696D01*
X115058629Y-87525972D01*
X115056164Y-87533145D01*
X114628513Y-88082983D01*
X114620729Y-88087410D01*
X114619278Y-88087500D01*
X114380722Y-88087500D01*
X114372449Y-88084073D01*
X114371487Y-88082983D01*
X113943835Y-87533145D01*
X113941460Y-87524511D01*
X113944789Y-87517698D01*
X114491721Y-86969793D01*
X114499990Y-86966360D01*
X114508264Y-86969779D01*
G37*
%TD.AperFunction*%
%TD*%
%TA.AperFunction,Conductor*%
%TO.N,GND*%
G36*
X113200000Y-92650000D02*
G01*
X113200000Y-93350000D01*
X112229610Y-93554328D01*
X111999000Y-93000000D01*
X112229610Y-92445672D01*
X113200000Y-92650000D01*
G37*
%TD.AperFunction*%
%TD*%
%TA.AperFunction,Conductor*%
%TO.N,GND*%
G36*
X126492894Y-94850000D02*
G01*
X125924264Y-95424264D01*
X125499000Y-95000000D01*
X125270390Y-94445672D01*
X126492894Y-94150000D01*
X126492894Y-94850000D01*
G37*
%TD.AperFunction*%
%TD*%
%TA.AperFunction,Conductor*%
%TO.N,Net-(Q2-B)*%
G36*
X119983014Y-96351643D02*
G01*
X120148356Y-96516985D01*
X120151783Y-96525258D01*
X120150747Y-96530071D01*
X119874206Y-97142760D01*
X119867679Y-97148891D01*
X119859090Y-97148767D01*
X119503804Y-97002563D01*
X119497457Y-96996245D01*
X119497436Y-96996195D01*
X119351232Y-96640909D01*
X119351253Y-96631955D01*
X119357237Y-96625794D01*
X119969928Y-96349251D01*
X119978878Y-96348972D01*
X119983014Y-96351643D01*
G37*
%TD.AperFunction*%
%TD*%
%TA.AperFunction,Conductor*%
%TO.N,Net-(U1-RA3)*%
G36*
X112368044Y-89351253D02*
G01*
X112374206Y-89357239D01*
X112650747Y-89969928D01*
X112651027Y-89978878D01*
X112648356Y-89983014D01*
X112483014Y-90148356D01*
X112474741Y-90151783D01*
X112469928Y-90150747D01*
X111857239Y-89874206D01*
X111851108Y-89867679D01*
X111851232Y-89859090D01*
X111997437Y-89503802D01*
X112003753Y-89497457D01*
X112359090Y-89351232D01*
X112368044Y-89351253D01*
G37*
%TD.AperFunction*%
%TD*%
%TA.AperFunction,Conductor*%
%TO.N,GND*%
G36*
X93501000Y-95500000D02*
G01*
X93270390Y-96054328D01*
X92300000Y-95850000D01*
X92300000Y-95150000D01*
X93270390Y-94945672D01*
X93501000Y-95500000D01*
G37*
%TD.AperFunction*%
%TD*%
%TA.AperFunction,Conductor*%
%TO.N,/VDD*%
G36*
X117977116Y-99912400D02*
G01*
X117979405Y-99914449D01*
X118394734Y-100398590D01*
X118397520Y-100407100D01*
X118394127Y-100414481D01*
X117914563Y-100894045D01*
X117906290Y-100897472D01*
X117898578Y-100894571D01*
X117350836Y-100414481D01*
X117340606Y-100405514D01*
X117336644Y-100397484D01*
X117337499Y-100392265D01*
X117496879Y-100005154D01*
X117503197Y-99998810D01*
X117505517Y-99998115D01*
X117968352Y-99910571D01*
X117977116Y-99912400D01*
G37*
%TD.AperFunction*%
%TD*%
%TA.AperFunction,Conductor*%
%TO.N,/VDD*%
G36*
X128226181Y-79458017D02*
G01*
X128928849Y-79647665D01*
X128935943Y-79653129D01*
X128937500Y-79658961D01*
X128937500Y-80341038D01*
X128934073Y-80349311D01*
X128928849Y-80352334D01*
X128226190Y-80541980D01*
X128217309Y-80540827D01*
X128216103Y-80540030D01*
X127962848Y-80349311D01*
X127511409Y-80009345D01*
X127506862Y-80001632D01*
X127509102Y-79992962D01*
X127511408Y-79990655D01*
X128216105Y-79459968D01*
X128224773Y-79457729D01*
X128226181Y-79458017D01*
G37*
%TD.AperFunction*%
%TD*%
%TA.AperFunction,Conductor*%
%TO.N,Net-(Q4-B)*%
G36*
X127508264Y-82932279D02*
G01*
X128055209Y-83480196D01*
X128058629Y-83488472D01*
X128056164Y-83495645D01*
X127628513Y-84045483D01*
X127620729Y-84049910D01*
X127619278Y-84050000D01*
X127380722Y-84050000D01*
X127372449Y-84046573D01*
X127371487Y-84045483D01*
X126943835Y-83495645D01*
X126941460Y-83487011D01*
X126944789Y-83480198D01*
X127491721Y-82932293D01*
X127499990Y-82928860D01*
X127508264Y-82932279D01*
G37*
%TD.AperFunction*%
%TD*%
%TA.AperFunction,Conductor*%
%TO.N,/VDD*%
G36*
X92521549Y-88153493D02*
G01*
X93716338Y-88442462D01*
X93723574Y-88447738D01*
X93724960Y-88456584D01*
X93724404Y-88458295D01*
X93501893Y-88997833D01*
X93499340Y-89001655D01*
X93084049Y-89415969D01*
X93075772Y-89419386D01*
X93067503Y-89415949D01*
X93067472Y-89415918D01*
X92510492Y-88853419D01*
X92507106Y-88845187D01*
X92507106Y-88164866D01*
X92510533Y-88156593D01*
X92518806Y-88153166D01*
X92521549Y-88153493D01*
G37*
%TD.AperFunction*%
%TD*%
%TA.AperFunction,Conductor*%
%TO.N,/Power/Control*%
G36*
X120096450Y-80403699D02*
G01*
X120627592Y-80694970D01*
X120633198Y-80701953D01*
X120632788Y-80709676D01*
X120517543Y-80990153D01*
X120511229Y-80996503D01*
X120502547Y-80996636D01*
X119839170Y-80743329D01*
X119832664Y-80737177D01*
X119832414Y-80728225D01*
X119832972Y-80726986D01*
X119911154Y-80577830D01*
X119913239Y-80574997D01*
X120082552Y-80405684D01*
X120090824Y-80402258D01*
X120096450Y-80403699D01*
G37*
%TD.AperFunction*%
%TD*%
%TA.AperFunction,Conductor*%
%TO.N,/VADC*%
G36*
X123919391Y-92989612D02*
G01*
X124429260Y-93147449D01*
X124436150Y-93153169D01*
X124437500Y-93158626D01*
X124437500Y-93841373D01*
X124434073Y-93849646D01*
X124429260Y-93852550D01*
X123919396Y-94010386D01*
X123910479Y-94009559D01*
X123907570Y-94007388D01*
X123753693Y-93850000D01*
X123419495Y-93508178D01*
X123416163Y-93499868D01*
X123419495Y-93491821D01*
X123907571Y-92992610D01*
X123915804Y-92989091D01*
X123919391Y-92989612D01*
G37*
%TD.AperFunction*%
%TD*%
%TA.AperFunction,Conductor*%
%TO.N,/Power/Control*%
G36*
X130484708Y-81163478D02*
G01*
X131102091Y-81439318D01*
X131108246Y-81445821D01*
X131108000Y-81454773D01*
X131102091Y-81460682D01*
X130484708Y-81736521D01*
X130475756Y-81736767D01*
X130475435Y-81736639D01*
X130094700Y-81577999D01*
X130088381Y-81571654D01*
X130087500Y-81567199D01*
X130087500Y-81332800D01*
X130090927Y-81324527D01*
X130094700Y-81322000D01*
X130475436Y-81163359D01*
X130484390Y-81163341D01*
X130484708Y-81163478D01*
G37*
%TD.AperFunction*%
%TD*%
%TA.AperFunction,Conductor*%
%TO.N,Net-(Q4-B)*%
G36*
X132998999Y-82403613D02*
G01*
X133005043Y-82409846D01*
X133109518Y-82664113D01*
X133120288Y-82690323D01*
X133120263Y-82699278D01*
X133115092Y-82705029D01*
X132583950Y-82996300D01*
X132575048Y-82997273D01*
X132570051Y-82994314D01*
X132400742Y-82825005D01*
X132398652Y-82822164D01*
X132320480Y-82673029D01*
X132319676Y-82664113D01*
X132325412Y-82657237D01*
X132326662Y-82656673D01*
X132990048Y-82403363D01*
X132998999Y-82403613D01*
G37*
%TD.AperFunction*%
%TD*%
%TA.AperFunction,Conductor*%
%TO.N,Net-(Q1-B)*%
G36*
X120954636Y-84274087D02*
G01*
X121496207Y-84497437D01*
X121502548Y-84503759D01*
X121502562Y-84503792D01*
X121725912Y-85045363D01*
X121725898Y-85054318D01*
X121721487Y-85059624D01*
X120906911Y-85590829D01*
X120898109Y-85592478D01*
X120892247Y-85589302D01*
X120410697Y-85107752D01*
X120407270Y-85099479D01*
X120409169Y-85093089D01*
X120940375Y-84278511D01*
X120947764Y-84273454D01*
X120954636Y-84274087D01*
G37*
%TD.AperFunction*%
%TD*%
%TA.AperFunction,Conductor*%
%TO.N,GND*%
G36*
X137942539Y-69520185D02*
G01*
X137988294Y-69572989D01*
X137999500Y-69624500D01*
X137999500Y-89250500D01*
X137979815Y-89317539D01*
X137927011Y-89363294D01*
X137875500Y-89374500D01*
X136102129Y-89374500D01*
X136102123Y-89374501D01*
X136042520Y-89380908D01*
X136042514Y-89380909D01*
X136027572Y-89386481D01*
X136027573Y-89386482D01*
X136020977Y-89388941D01*
X136019038Y-89389320D01*
X136009650Y-89393165D01*
X136007800Y-89393856D01*
X136007797Y-89393856D01*
X135907673Y-89431201D01*
X135899888Y-89435453D01*
X135899852Y-89435387D01*
X135889556Y-89441263D01*
X135889876Y-89441908D01*
X135885905Y-89443877D01*
X135885903Y-89443878D01*
X135283875Y-89798013D01*
X135182951Y-89857380D01*
X135120080Y-89874500D01*
X131691228Y-89874500D01*
X131526925Y-89907182D01*
X131526913Y-89907185D01*
X131481583Y-89925962D01*
X131372143Y-89971292D01*
X131372137Y-89971295D01*
X131372137Y-89971296D01*
X131299438Y-90019873D01*
X131232831Y-90064379D01*
X131232831Y-90064380D01*
X129684030Y-91613181D01*
X129622707Y-91646666D01*
X129596349Y-91649500D01*
X129250409Y-91649500D01*
X129224994Y-91646867D01*
X129213655Y-91644492D01*
X129208082Y-91642184D01*
X129099335Y-91620553D01*
X129098585Y-91620396D01*
X129068360Y-91604196D01*
X129037897Y-91588261D01*
X129037575Y-91587695D01*
X129037003Y-91587389D01*
X129020327Y-91557407D01*
X129003323Y-91527545D01*
X129003218Y-91526644D01*
X129003042Y-91526328D01*
X129003091Y-91525555D01*
X129000000Y-91499029D01*
X129000000Y-83674500D01*
X129019685Y-83607461D01*
X129072489Y-83561706D01*
X129124000Y-83550500D01*
X132536608Y-83550500D01*
X132536608Y-83550499D01*
X132600169Y-83537857D01*
X132657452Y-83526463D01*
X132690792Y-83512652D01*
X132771286Y-83479312D01*
X132818820Y-83447550D01*
X132830826Y-83439528D01*
X132834108Y-83437333D01*
X132843776Y-83430874D01*
X132853015Y-83425267D01*
X133235033Y-83215774D01*
X133294656Y-83200500D01*
X133653186Y-83200500D01*
X133653194Y-83200500D01*
X133690069Y-83197598D01*
X133690071Y-83197597D01*
X133690073Y-83197597D01*
X133731691Y-83185505D01*
X133847898Y-83151744D01*
X133989365Y-83068081D01*
X134105581Y-82951865D01*
X134189244Y-82810398D01*
X134235098Y-82652569D01*
X134238000Y-82615694D01*
X134238000Y-82184306D01*
X134235098Y-82147431D01*
X134189244Y-81989602D01*
X134105581Y-81848135D01*
X134105579Y-81848133D01*
X134105576Y-81848129D01*
X133989370Y-81731923D01*
X133989362Y-81731917D01*
X133847896Y-81648255D01*
X133847893Y-81648254D01*
X133690073Y-81602402D01*
X133690067Y-81602401D01*
X133653201Y-81599500D01*
X133653194Y-81599500D01*
X132487000Y-81599500D01*
X132419961Y-81579815D01*
X132374206Y-81527011D01*
X132363000Y-81475500D01*
X132363000Y-81424500D01*
X132365550Y-81415814D01*
X132364262Y-81406853D01*
X132375240Y-81382812D01*
X132382685Y-81357461D01*
X132389525Y-81351533D01*
X132393287Y-81343297D01*
X132415521Y-81329007D01*
X132435489Y-81311706D01*
X132446003Y-81309418D01*
X132452065Y-81305523D01*
X132487000Y-81300500D01*
X132685450Y-81300500D01*
X132732897Y-81309937D01*
X132751919Y-81317816D01*
X132751926Y-81317817D01*
X132751926Y-81317818D01*
X132916228Y-81350499D01*
X132916232Y-81350500D01*
X132916233Y-81350500D01*
X133083768Y-81350500D01*
X133083769Y-81350499D01*
X133138538Y-81339605D01*
X133248073Y-81317818D01*
X133248073Y-81317817D01*
X133248081Y-81317816D01*
X133267102Y-81309937D01*
X133314550Y-81300500D01*
X133653186Y-81300500D01*
X133653194Y-81300500D01*
X133690069Y-81297598D01*
X133690071Y-81297597D01*
X133690073Y-81297597D01*
X133731691Y-81285505D01*
X133847898Y-81251744D01*
X133989365Y-81168081D01*
X134105581Y-81051865D01*
X134189244Y-80910398D01*
X134235098Y-80752569D01*
X134238000Y-80715694D01*
X134238000Y-80284306D01*
X134235098Y-80247431D01*
X134223589Y-80207818D01*
X134199591Y-80125217D01*
X134189244Y-80089602D01*
X134105581Y-79948135D01*
X134105579Y-79948133D01*
X134105576Y-79948129D01*
X133989370Y-79831923D01*
X133989362Y-79831917D01*
X133847896Y-79748255D01*
X133847893Y-79748254D01*
X133690073Y-79702402D01*
X133690067Y-79702401D01*
X133653201Y-79699500D01*
X133653194Y-79699500D01*
X133453651Y-79699500D01*
X133386612Y-79679815D01*
X133365970Y-79663181D01*
X133042165Y-79339375D01*
X133042161Y-79339372D01*
X132902869Y-79246299D01*
X132902856Y-79246292D01*
X132781118Y-79195868D01*
X132781116Y-79195867D01*
X132748086Y-79182185D01*
X132748074Y-79182182D01*
X132583771Y-79149500D01*
X132583767Y-79149500D01*
X129039482Y-79149500D01*
X129007171Y-79145216D01*
X128357893Y-78969977D01*
X128327483Y-78962771D01*
X128325263Y-78962317D01*
X128311117Y-78958541D01*
X128277797Y-78947501D01*
X128175010Y-78937000D01*
X126824998Y-78937000D01*
X126824981Y-78937001D01*
X126722199Y-78947501D01*
X126622117Y-78980664D01*
X126605443Y-78984931D01*
X126603791Y-78985233D01*
X126603770Y-78985238D01*
X125984258Y-79193061D01*
X125944821Y-79199500D01*
X122791150Y-79199500D01*
X122724111Y-79179815D01*
X122703469Y-79163181D01*
X122578637Y-79038349D01*
X122431820Y-78891531D01*
X122415635Y-78871584D01*
X122414007Y-78869087D01*
X121901796Y-78083638D01*
X121899298Y-78079865D01*
X121892208Y-78067709D01*
X121859983Y-78004463D01*
X121844687Y-77983410D01*
X121758164Y-77864322D01*
X121635678Y-77741836D01*
X121495538Y-77640018D01*
X121432124Y-77607707D01*
X121420291Y-77600284D01*
X121420071Y-77600622D01*
X120628414Y-77084363D01*
X120608467Y-77068178D01*
X120379665Y-76839375D01*
X120379661Y-76839372D01*
X120240366Y-76746297D01*
X120240363Y-76746296D01*
X120130916Y-76700962D01*
X120130914Y-76700961D01*
X120085586Y-76682185D01*
X120085574Y-76682182D01*
X119921271Y-76649500D01*
X119921267Y-76649500D01*
X107416233Y-76649500D01*
X107416228Y-76649500D01*
X107251925Y-76682182D01*
X107251913Y-76682185D01*
X107206583Y-76700962D01*
X107097143Y-76746292D01*
X107097130Y-76746299D01*
X106957838Y-76839372D01*
X106957834Y-76839375D01*
X106339375Y-77457834D01*
X106339372Y-77457838D01*
X106246299Y-77597130D01*
X106246292Y-77597143D01*
X106200962Y-77706583D01*
X106182185Y-77751913D01*
X106182182Y-77751925D01*
X106149500Y-77916228D01*
X106149500Y-78030305D01*
X106139233Y-78079710D01*
X105835384Y-78779184D01*
X105790619Y-78832830D01*
X105723957Y-78853758D01*
X105656563Y-78835323D01*
X105617632Y-78796280D01*
X105617487Y-78796387D01*
X105616811Y-78795456D01*
X105615919Y-78794562D01*
X105614615Y-78792435D01*
X105489727Y-78620540D01*
X105489723Y-78620535D01*
X105339464Y-78470276D01*
X105339459Y-78470272D01*
X105167557Y-78345379D01*
X104978215Y-78248903D01*
X104776124Y-78183241D01*
X104710000Y-78172768D01*
X104710000Y-79066988D01*
X104652993Y-79034075D01*
X104525826Y-79000000D01*
X104394174Y-79000000D01*
X104267007Y-79034075D01*
X104210000Y-79066988D01*
X104210000Y-78172768D01*
X104209999Y-78172768D01*
X104143875Y-78183241D01*
X103941784Y-78248903D01*
X103752442Y-78345379D01*
X103580540Y-78470272D01*
X103580535Y-78470276D01*
X103430276Y-78620535D01*
X103430272Y-78620540D01*
X103305378Y-78792443D01*
X103300762Y-78801502D01*
X103252784Y-78852295D01*
X103184963Y-78869087D01*
X103118829Y-78846546D01*
X103079794Y-78801493D01*
X103075051Y-78792184D01*
X103075049Y-78792181D01*
X103075048Y-78792179D01*
X102950109Y-78620213D01*
X102799786Y-78469890D01*
X102627820Y-78344951D01*
X102438414Y-78248444D01*
X102438413Y-78248443D01*
X102438412Y-78248443D01*
X102236243Y-78182754D01*
X102236241Y-78182753D01*
X102236240Y-78182753D01*
X102074957Y-78157208D01*
X102026287Y-78149500D01*
X101813713Y-78149500D01*
X101765042Y-78157208D01*
X101603760Y-78182753D01*
X101401585Y-78248444D01*
X101212179Y-78344951D01*
X101040213Y-78469890D01*
X100889890Y-78620213D01*
X100764949Y-78792182D01*
X100760484Y-78800946D01*
X100712509Y-78851742D01*
X100644688Y-78868536D01*
X100578553Y-78845998D01*
X100539516Y-78800946D01*
X100535050Y-78792182D01*
X100410109Y-78620213D01*
X100259786Y-78469890D01*
X100087820Y-78344951D01*
X99898414Y-78248444D01*
X99898413Y-78248443D01*
X99898412Y-78248443D01*
X99696243Y-78182754D01*
X99696241Y-78182753D01*
X99696240Y-78182753D01*
X99534957Y-78157208D01*
X99486287Y-78149500D01*
X99273713Y-78149500D01*
X99225042Y-78157208D01*
X99063760Y-78182753D01*
X98861585Y-78248444D01*
X98672179Y-78344951D01*
X98500213Y-78469890D01*
X98349890Y-78620213D01*
X98224951Y-78792179D01*
X98128444Y-78981585D01*
X98062753Y-79183760D01*
X98029500Y-79393713D01*
X98029500Y-79606286D01*
X98051985Y-79748255D01*
X98062754Y-79816243D01*
X98067847Y-79831919D01*
X98128444Y-80018414D01*
X98224951Y-80207820D01*
X98349890Y-80379786D01*
X98500213Y-80530109D01*
X98672179Y-80655048D01*
X98672181Y-80655049D01*
X98672184Y-80655051D01*
X98861588Y-80751557D01*
X99063757Y-80817246D01*
X99273713Y-80850500D01*
X99273714Y-80850500D01*
X99486286Y-80850500D01*
X99486287Y-80850500D01*
X99696243Y-80817246D01*
X99898412Y-80751557D01*
X100087816Y-80655051D01*
X100193650Y-80578159D01*
X100259786Y-80530109D01*
X100259788Y-80530106D01*
X100259792Y-80530104D01*
X100410104Y-80379792D01*
X100410106Y-80379788D01*
X100410109Y-80379786D01*
X100535048Y-80207820D01*
X100535047Y-80207820D01*
X100535051Y-80207816D01*
X100539514Y-80199054D01*
X100587488Y-80148259D01*
X100655308Y-80131463D01*
X100721444Y-80153999D01*
X100760486Y-80199056D01*
X100764951Y-80207820D01*
X100889890Y-80379786D01*
X101040213Y-80530109D01*
X101212179Y-80655048D01*
X101212181Y-80655049D01*
X101212184Y-80655051D01*
X101401588Y-80751557D01*
X101603757Y-80817246D01*
X101813713Y-80850500D01*
X101813714Y-80850500D01*
X102026286Y-80850500D01*
X102026287Y-80850500D01*
X102236243Y-80817246D01*
X102438412Y-80751557D01*
X102627816Y-80655051D01*
X102733650Y-80578159D01*
X102799786Y-80530109D01*
X102799788Y-80530106D01*
X102799792Y-80530104D01*
X102950104Y-80379792D01*
X102950106Y-80379788D01*
X102950109Y-80379786D01*
X103075048Y-80207820D01*
X103075051Y-80207816D01*
X103079793Y-80198508D01*
X103127763Y-80147711D01*
X103195583Y-80130911D01*
X103261719Y-80153445D01*
X103300763Y-80198500D01*
X103305377Y-80207555D01*
X103430272Y-80379459D01*
X103430276Y-80379464D01*
X103580535Y-80529723D01*
X103580540Y-80529727D01*
X103752442Y-80654620D01*
X103941782Y-80751095D01*
X104143871Y-80816757D01*
X104210000Y-80827231D01*
X104210000Y-79933012D01*
X104267007Y-79965925D01*
X104394174Y-80000000D01*
X104525826Y-80000000D01*
X104652993Y-79965925D01*
X104710000Y-79933012D01*
X104710000Y-80827230D01*
X104776126Y-80816757D01*
X104776129Y-80816757D01*
X104978217Y-80751095D01*
X105167557Y-80654620D01*
X105339459Y-80529727D01*
X105339464Y-80529723D01*
X105489723Y-80379464D01*
X105489727Y-80379459D01*
X105614620Y-80207558D01*
X105619232Y-80198507D01*
X105667205Y-80147709D01*
X105735025Y-80130912D01*
X105801161Y-80153447D01*
X105840204Y-80198504D01*
X105844949Y-80207817D01*
X105969890Y-80379786D01*
X106120213Y-80530109D01*
X106292179Y-80655048D01*
X106292181Y-80655049D01*
X106292184Y-80655051D01*
X106481588Y-80751557D01*
X106683757Y-80817246D01*
X106893713Y-80850500D01*
X106893714Y-80850500D01*
X107106286Y-80850500D01*
X107106287Y-80850500D01*
X107316243Y-80817246D01*
X107518412Y-80751557D01*
X107707816Y-80655051D01*
X107803115Y-80585813D01*
X107868921Y-80562333D01*
X107936975Y-80578159D01*
X107985670Y-80628264D01*
X108000000Y-80686131D01*
X108000000Y-81260481D01*
X107991057Y-81290936D01*
X107983755Y-81321840D01*
X107981282Y-81324226D01*
X107980315Y-81327520D01*
X107956332Y-81348301D01*
X107933476Y-81370356D01*
X107929096Y-81371900D01*
X107927511Y-81373275D01*
X107900192Y-81382098D01*
X107896603Y-81382812D01*
X107877971Y-81386518D01*
X107817548Y-81398537D01*
X107817546Y-81398537D01*
X107817545Y-81398538D01*
X107817543Y-81398538D01*
X107787369Y-81411037D01*
X107703715Y-81445686D01*
X107693627Y-81452428D01*
X107693626Y-81452429D01*
X107601268Y-81514140D01*
X107557705Y-81557703D01*
X107514142Y-81601267D01*
X107104006Y-82011402D01*
X107103998Y-82011410D01*
X107101270Y-82014139D01*
X107101267Y-82014142D01*
X107014142Y-82101267D01*
X106985693Y-82143844D01*
X106981081Y-82150744D01*
X106981080Y-82150747D01*
X106945687Y-82203715D01*
X106945685Y-82203718D01*
X106914411Y-82279223D01*
X106912347Y-82284207D01*
X106898537Y-82317548D01*
X106893425Y-82343251D01*
X106892103Y-82349895D01*
X106892101Y-82349903D01*
X106876147Y-82430116D01*
X106876146Y-82430118D01*
X106874500Y-82438392D01*
X106874500Y-88071761D01*
X106866489Y-88115607D01*
X106661604Y-88657600D01*
X106645607Y-88706482D01*
X106645575Y-88706471D01*
X106641258Y-88720063D01*
X106634107Y-88737330D01*
X106634105Y-88737336D01*
X106599500Y-88911306D01*
X106599500Y-89088695D01*
X106634103Y-89262658D01*
X106634106Y-89262667D01*
X106701983Y-89426540D01*
X106701990Y-89426553D01*
X106800535Y-89574034D01*
X106800538Y-89574038D01*
X106925961Y-89699461D01*
X106925965Y-89699464D01*
X107073446Y-89798009D01*
X107073459Y-89798016D01*
X107173405Y-89839414D01*
X107237334Y-89865894D01*
X107237336Y-89865894D01*
X107237341Y-89865896D01*
X107411304Y-89900499D01*
X107411307Y-89900500D01*
X107411309Y-89900500D01*
X107588693Y-89900500D01*
X107588694Y-89900499D01*
X107646682Y-89888964D01*
X107762658Y-89865896D01*
X107762661Y-89865894D01*
X107762666Y-89865894D01*
X107926547Y-89798013D01*
X108074035Y-89699464D01*
X108199464Y-89574035D01*
X108298013Y-89426547D01*
X108365894Y-89262666D01*
X108366883Y-89257697D01*
X108400499Y-89088695D01*
X108400500Y-89088693D01*
X108400500Y-88911306D01*
X108400499Y-88911304D01*
X108378466Y-88800538D01*
X108365894Y-88737334D01*
X108348925Y-88696369D01*
X108342439Y-88675810D01*
X108338394Y-88657602D01*
X108338394Y-88657600D01*
X108133510Y-88115607D01*
X108125500Y-88071764D01*
X108125500Y-82810452D01*
X108134144Y-82781011D01*
X108140668Y-82751025D01*
X108144422Y-82746009D01*
X108145185Y-82743413D01*
X108161819Y-82722771D01*
X108222771Y-82661819D01*
X108284094Y-82628334D01*
X108310452Y-82625500D01*
X112061608Y-82625500D01*
X112061608Y-82625499D01*
X112136385Y-82610626D01*
X112182452Y-82601463D01*
X112228351Y-82582451D01*
X112296286Y-82554312D01*
X112307106Y-82547081D01*
X112373783Y-82526202D01*
X112441164Y-82544685D01*
X112487855Y-82596662D01*
X112500000Y-82650182D01*
X112500000Y-88546833D01*
X112480315Y-88613872D01*
X112427511Y-88659627D01*
X112358353Y-88669571D01*
X112328549Y-88661395D01*
X112306184Y-88652131D01*
X112262666Y-88634106D01*
X112262662Y-88634105D01*
X112262658Y-88634103D01*
X112088694Y-88599500D01*
X112088691Y-88599500D01*
X111911309Y-88599500D01*
X111911306Y-88599500D01*
X111737341Y-88634103D01*
X111737332Y-88634106D01*
X111573459Y-88701983D01*
X111573446Y-88701990D01*
X111425965Y-88800535D01*
X111425961Y-88800538D01*
X111300538Y-88925961D01*
X111300535Y-88925965D01*
X111201990Y-89073446D01*
X111201983Y-89073459D01*
X111134106Y-89237332D01*
X111134103Y-89237341D01*
X111099500Y-89411304D01*
X111099500Y-89588695D01*
X111134103Y-89762658D01*
X111134106Y-89762667D01*
X111201983Y-89926540D01*
X111201990Y-89926553D01*
X111300535Y-90074034D01*
X111300538Y-90074038D01*
X111425961Y-90199461D01*
X111425965Y-90199464D01*
X111573453Y-90298013D01*
X111573455Y-90298013D01*
X111573457Y-90298015D01*
X111614412Y-90314978D01*
X111633539Y-90324929D01*
X111649280Y-90334948D01*
X112177399Y-90573318D01*
X112214066Y-90598657D01*
X112601263Y-90985855D01*
X112601267Y-90985858D01*
X112703710Y-91054309D01*
X112703711Y-91054309D01*
X112703715Y-91054312D01*
X112770397Y-91081932D01*
X112817548Y-91101463D01*
X112837597Y-91105451D01*
X112885848Y-91115048D01*
X112924164Y-91129574D01*
X113218833Y-91301596D01*
X113517752Y-91476099D01*
X113517756Y-91476101D01*
X113531617Y-91482480D01*
X113555666Y-91497314D01*
X113584873Y-91506992D01*
X113606758Y-91517065D01*
X113611025Y-91518547D01*
X113618646Y-91521126D01*
X113628931Y-91522950D01*
X113646258Y-91527332D01*
X113722203Y-91552499D01*
X113824991Y-91563000D01*
X115175008Y-91562999D01*
X115277797Y-91552499D01*
X115444334Y-91497314D01*
X115593656Y-91405212D01*
X115717712Y-91281156D01*
X115809814Y-91131834D01*
X115864999Y-90965297D01*
X115875500Y-90862509D01*
X115875499Y-90623999D01*
X115895183Y-90556961D01*
X115947987Y-90511206D01*
X115999499Y-90500000D01*
X116745849Y-90500000D01*
X116812888Y-90519685D01*
X116833525Y-90536314D01*
X116895868Y-90598657D01*
X116957839Y-90660628D01*
X116957842Y-90660630D01*
X117097136Y-90753703D01*
X117097139Y-90753705D01*
X117167823Y-90782983D01*
X117167824Y-90782983D01*
X117251918Y-90817816D01*
X117416228Y-90850499D01*
X117416232Y-90850500D01*
X117416233Y-90850500D01*
X117416234Y-90850500D01*
X117583767Y-90850500D01*
X121373496Y-90850500D01*
X121440535Y-90870185D01*
X121486290Y-90922989D01*
X121497494Y-90973908D01*
X121500000Y-91500000D01*
X123233349Y-91500000D01*
X123300388Y-91519685D01*
X123321030Y-91536319D01*
X123878620Y-92093909D01*
X123912105Y-92155232D01*
X123907121Y-92224924D01*
X123865249Y-92280857D01*
X123799785Y-92305274D01*
X123778336Y-92304948D01*
X123725010Y-92299500D01*
X123099998Y-92299500D01*
X123099980Y-92299501D01*
X122997203Y-92310000D01*
X122997200Y-92310001D01*
X122830668Y-92365185D01*
X122830663Y-92365187D01*
X122681342Y-92457289D01*
X122587681Y-92550951D01*
X122526358Y-92584436D01*
X122456666Y-92579452D01*
X122412319Y-92550951D01*
X122318657Y-92457289D01*
X122318656Y-92457288D01*
X122181993Y-92372994D01*
X122169336Y-92365187D01*
X122169331Y-92365185D01*
X122161228Y-92362500D01*
X122002797Y-92310001D01*
X122002795Y-92310000D01*
X121900010Y-92299500D01*
X121274998Y-92299500D01*
X121274980Y-92299501D01*
X121172203Y-92310000D01*
X121172200Y-92310001D01*
X121005668Y-92365185D01*
X121005663Y-92365187D01*
X120856342Y-92457289D01*
X120732289Y-92581342D01*
X120640187Y-92730663D01*
X120640185Y-92730668D01*
X120628809Y-92765000D01*
X120585001Y-92897203D01*
X120585001Y-92897204D01*
X120585000Y-92897204D01*
X120574500Y-92999983D01*
X120574500Y-94000001D01*
X120574501Y-94000019D01*
X120585000Y-94102796D01*
X120585001Y-94102799D01*
X120619146Y-94205840D01*
X120640186Y-94269334D01*
X120732288Y-94418656D01*
X120856344Y-94542712D01*
X121005666Y-94634814D01*
X121123874Y-94673984D01*
X121156631Y-94690565D01*
X121577706Y-94989395D01*
X121662528Y-95049592D01*
X121678444Y-95063034D01*
X121838181Y-95222771D01*
X121871666Y-95284094D01*
X121874500Y-95310452D01*
X121874500Y-95571299D01*
X121854815Y-95638338D01*
X121802011Y-95684093D01*
X121750500Y-95695299D01*
X121673331Y-95695299D01*
X121611508Y-95678788D01*
X121512466Y-95621824D01*
X121486608Y-95602016D01*
X121398733Y-95514141D01*
X121353325Y-95483801D01*
X121353324Y-95483800D01*
X121347509Y-95479915D01*
X121296286Y-95445688D01*
X121215792Y-95412347D01*
X121200457Y-95405995D01*
X121182453Y-95398537D01*
X121172427Y-95396543D01*
X121122029Y-95386518D01*
X121061610Y-95374500D01*
X121061607Y-95374500D01*
X121061606Y-95374500D01*
X120567741Y-95374500D01*
X120567721Y-95374499D01*
X120561607Y-95374499D01*
X120438394Y-95374499D01*
X120438392Y-95374499D01*
X120345587Y-95392959D01*
X120345581Y-95392960D01*
X120337703Y-95394528D01*
X120317548Y-95398537D01*
X120270397Y-95418067D01*
X120266560Y-95419656D01*
X120266555Y-95419658D01*
X120203719Y-95445685D01*
X120203717Y-95445686D01*
X120101266Y-95514141D01*
X119714070Y-95901337D01*
X119677402Y-95926677D01*
X119149269Y-96165055D01*
X119103338Y-96188341D01*
X119103319Y-96188305D01*
X119090693Y-96194846D01*
X119073453Y-96201986D01*
X118925965Y-96300535D01*
X118925961Y-96300538D01*
X118800538Y-96425961D01*
X118800535Y-96425965D01*
X118701990Y-96573446D01*
X118701985Y-96573455D01*
X118687912Y-96607431D01*
X118687901Y-96607459D01*
X118634106Y-96737334D01*
X118628949Y-96763258D01*
X118628945Y-96763270D01*
X118599500Y-96911304D01*
X118599500Y-97088695D01*
X118634103Y-97262658D01*
X118634106Y-97262667D01*
X118701983Y-97426540D01*
X118701990Y-97426553D01*
X118772187Y-97531609D01*
X118775224Y-97541309D01*
X118781879Y-97548989D01*
X118785487Y-97574086D01*
X118793065Y-97598286D01*
X118790376Y-97608086D01*
X118791823Y-97618147D01*
X118781289Y-97641212D01*
X118774581Y-97665667D01*
X118767019Y-97672459D01*
X118762798Y-97681703D01*
X118741467Y-97695411D01*
X118722602Y-97712357D01*
X118711004Y-97714988D01*
X118704020Y-97719477D01*
X118669085Y-97724500D01*
X118532684Y-97724500D01*
X118477562Y-97711574D01*
X118463942Y-97704815D01*
X118279253Y-97613160D01*
X118228726Y-97567000D01*
X118143845Y-97428842D01*
X118125500Y-97363934D01*
X118125500Y-97136063D01*
X118143847Y-97071153D01*
X118223606Y-96941330D01*
X118294474Y-96825980D01*
X118312448Y-96803208D01*
X118315121Y-96800535D01*
X118330472Y-96785185D01*
X118418478Y-96639606D01*
X118469086Y-96477196D01*
X118475500Y-96406616D01*
X118475500Y-95893384D01*
X118469086Y-95822804D01*
X118418478Y-95660394D01*
X118330472Y-95514815D01*
X118330470Y-95514813D01*
X118330469Y-95514811D01*
X118227984Y-95412326D01*
X118194499Y-95351003D01*
X118199483Y-95281311D01*
X118227985Y-95236963D01*
X118330071Y-95134878D01*
X118330072Y-95134877D01*
X118418019Y-94989395D01*
X118468590Y-94827106D01*
X118475000Y-94756572D01*
X118475000Y-94750000D01*
X116525001Y-94750000D01*
X116525001Y-94756582D01*
X116531408Y-94827102D01*
X116531409Y-94827107D01*
X116581981Y-94989396D01*
X116669927Y-95134877D01*
X116772015Y-95236965D01*
X116805500Y-95298288D01*
X116800516Y-95367980D01*
X116772015Y-95412327D01*
X116669531Y-95514810D01*
X116669530Y-95514811D01*
X116581522Y-95660393D01*
X116530913Y-95822807D01*
X116525782Y-95879275D01*
X116524500Y-95893384D01*
X116524500Y-96406616D01*
X116526258Y-96425961D01*
X116530913Y-96477192D01*
X116530913Y-96477194D01*
X116530914Y-96477196D01*
X116581522Y-96639606D01*
X116641971Y-96739601D01*
X116669530Y-96785188D01*
X116687548Y-96803206D01*
X116705520Y-96825976D01*
X116856153Y-97071154D01*
X116860816Y-97087654D01*
X116869477Y-97101130D01*
X116874500Y-97136065D01*
X116874500Y-97363934D01*
X116856153Y-97428845D01*
X116705520Y-97674022D01*
X116687554Y-97696787D01*
X116669528Y-97714815D01*
X116669527Y-97714815D01*
X116581522Y-97860393D01*
X116530913Y-98022807D01*
X116524500Y-98093386D01*
X116524500Y-98606613D01*
X116530913Y-98677192D01*
X116530913Y-98677194D01*
X116530914Y-98677196D01*
X116581522Y-98839606D01*
X116655120Y-98961352D01*
X116672956Y-99028904D01*
X116651439Y-99095378D01*
X116597398Y-99139666D01*
X116549003Y-99149500D01*
X111028652Y-99149500D01*
X110961613Y-99129815D01*
X110940971Y-99113181D01*
X105615276Y-93787486D01*
X113125001Y-93787486D01*
X113135494Y-93890197D01*
X113190641Y-94056619D01*
X113190643Y-94056624D01*
X113282684Y-94205845D01*
X113406654Y-94329815D01*
X113555875Y-94421856D01*
X113555880Y-94421858D01*
X113722302Y-94477005D01*
X113722309Y-94477006D01*
X113825019Y-94487499D01*
X114249999Y-94487499D01*
X114750000Y-94487499D01*
X115174972Y-94487499D01*
X115174986Y-94487498D01*
X115277697Y-94477005D01*
X115444119Y-94421858D01*
X115444124Y-94421856D01*
X115593345Y-94329815D01*
X115679733Y-94243427D01*
X116525000Y-94243427D01*
X116525000Y-94250000D01*
X117250000Y-94250000D01*
X117750000Y-94250000D01*
X118474999Y-94250000D01*
X118474999Y-94243417D01*
X118468591Y-94172897D01*
X118468590Y-94172892D01*
X118418018Y-94010603D01*
X118330072Y-93865122D01*
X118209877Y-93744927D01*
X118064395Y-93656980D01*
X118064396Y-93656980D01*
X117902105Y-93606409D01*
X117902106Y-93606409D01*
X117831572Y-93600000D01*
X117750000Y-93600000D01*
X117750000Y-94250000D01*
X117250000Y-94250000D01*
X117250000Y-93600000D01*
X117249999Y-93599999D01*
X117168417Y-93600000D01*
X117097897Y-93606408D01*
X117097892Y-93606409D01*
X116935603Y-93656981D01*
X116790122Y-93744927D01*
X116669927Y-93865122D01*
X116581980Y-94010604D01*
X116531409Y-94172893D01*
X116525000Y-94243427D01*
X115679733Y-94243427D01*
X115717316Y-94205844D01*
X115717319Y-94205840D01*
X115736020Y-94175521D01*
X115736022Y-94175518D01*
X115809356Y-94056624D01*
X115809358Y-94056619D01*
X115864505Y-93890197D01*
X115864506Y-93890190D01*
X115874999Y-93787486D01*
X115875000Y-93787473D01*
X115875000Y-93675000D01*
X114750000Y-93675000D01*
X114750000Y-94487499D01*
X114249999Y-94487499D01*
X114250000Y-94487498D01*
X114250000Y-93675000D01*
X113125001Y-93675000D01*
X113125001Y-93787486D01*
X105615276Y-93787486D01*
X104890303Y-93062513D01*
X113125000Y-93062513D01*
X113125000Y-93175000D01*
X114250000Y-93175000D01*
X114750000Y-93175000D01*
X115874999Y-93175000D01*
X115874999Y-93062528D01*
X115874998Y-93062513D01*
X115864505Y-92959802D01*
X115809358Y-92793380D01*
X115809356Y-92793375D01*
X115717315Y-92644154D01*
X115593345Y-92520184D01*
X115444124Y-92428143D01*
X115444119Y-92428141D01*
X115277697Y-92372994D01*
X115277690Y-92372993D01*
X115174986Y-92362500D01*
X114750000Y-92362500D01*
X114750000Y-93175000D01*
X114250000Y-93175000D01*
X114250000Y-92362500D01*
X113825028Y-92362500D01*
X113825012Y-92362501D01*
X113722302Y-92372994D01*
X113555880Y-92428141D01*
X113555875Y-92428143D01*
X113406654Y-92520184D01*
X113282684Y-92644154D01*
X113190643Y-92793375D01*
X113190641Y-92793380D01*
X113135494Y-92959802D01*
X113135493Y-92959809D01*
X113125000Y-93062513D01*
X104890303Y-93062513D01*
X104513068Y-92685278D01*
X104496883Y-92665331D01*
X104456378Y-92603218D01*
X103983046Y-91877387D01*
X103980548Y-91873614D01*
X103973458Y-91861458D01*
X103941233Y-91798212D01*
X103922340Y-91772209D01*
X103839414Y-91658071D01*
X103716928Y-91535585D01*
X103576788Y-91433767D01*
X103422445Y-91355126D01*
X103257701Y-91301597D01*
X103257699Y-91301596D01*
X103257698Y-91301596D01*
X103126271Y-91280780D01*
X103086611Y-91274499D01*
X102913389Y-91274499D01*
X102873728Y-91280780D01*
X102742302Y-91301596D01*
X102577552Y-91355127D01*
X102423211Y-91433767D01*
X102343256Y-91491858D01*
X102283072Y-91535585D01*
X102283070Y-91535587D01*
X102283069Y-91535587D01*
X102160588Y-91658068D01*
X102160588Y-91658069D01*
X102160586Y-91658071D01*
X102116859Y-91718255D01*
X102058768Y-91798210D01*
X101980128Y-91952551D01*
X101980127Y-91952553D01*
X101980127Y-91952554D01*
X101956146Y-92026358D01*
X101926597Y-92117301D01*
X101899500Y-92288388D01*
X101899500Y-92461609D01*
X101921928Y-92603218D01*
X101926598Y-92632700D01*
X101980127Y-92797444D01*
X102058768Y-92951787D01*
X102160586Y-93091927D01*
X102283072Y-93214413D01*
X102352699Y-93265000D01*
X102423207Y-93316228D01*
X102423209Y-93316229D01*
X102423212Y-93316231D01*
X102486625Y-93348541D01*
X102498456Y-93355966D01*
X102498678Y-93355626D01*
X102830488Y-93572007D01*
X103279965Y-93865122D01*
X103290332Y-93871882D01*
X103310279Y-93888067D01*
X110082835Y-100660624D01*
X110082839Y-100660627D01*
X110222133Y-100753701D01*
X110222134Y-100753701D01*
X110222138Y-100753704D01*
X110302762Y-100787099D01*
X110376919Y-100817816D01*
X110541229Y-100850499D01*
X110541233Y-100850500D01*
X110541234Y-100850500D01*
X110708768Y-100850500D01*
X116561637Y-100850500D01*
X116589409Y-100853650D01*
X116593749Y-100854648D01*
X117097136Y-100896596D01*
X117162310Y-100921780D01*
X117168572Y-100926917D01*
X117565383Y-101274718D01*
X117594514Y-101298397D01*
X117595415Y-101299129D01*
X117604882Y-101307670D01*
X118339374Y-102042162D01*
X118457838Y-102160626D01*
X118597137Y-102253703D01*
X118597138Y-102253703D01*
X118597139Y-102253704D01*
X118632201Y-102268227D01*
X118751918Y-102317816D01*
X118916228Y-102350499D01*
X118916232Y-102350500D01*
X118916233Y-102350500D01*
X122637968Y-102350500D01*
X122637969Y-102350499D01*
X122692738Y-102339605D01*
X122802274Y-102317818D01*
X122802278Y-102317816D01*
X122802282Y-102317816D01*
X122847615Y-102299037D01*
X122957063Y-102253704D01*
X123096362Y-102160627D01*
X124110628Y-101146361D01*
X124203705Y-101007062D01*
X124254722Y-100883894D01*
X124267817Y-100852281D01*
X124300501Y-100687966D01*
X124300501Y-100389749D01*
X124320186Y-100322710D01*
X124372990Y-100276955D01*
X124424501Y-100265749D01*
X127343517Y-100265749D01*
X127343518Y-100265748D01*
X127398287Y-100254854D01*
X127507823Y-100233067D01*
X127507827Y-100233065D01*
X127507831Y-100233065D01*
X127553164Y-100214286D01*
X127662612Y-100168953D01*
X127801911Y-100075876D01*
X127990970Y-99886817D01*
X128052293Y-99853332D01*
X128078651Y-99850498D01*
X128278186Y-99850498D01*
X128278194Y-99850498D01*
X128315069Y-99847596D01*
X128315071Y-99847595D01*
X128315073Y-99847595D01*
X128356691Y-99835503D01*
X128472898Y-99801742D01*
X128614365Y-99718079D01*
X128730581Y-99601863D01*
X128814244Y-99460396D01*
X128860098Y-99302567D01*
X128863000Y-99265692D01*
X128863000Y-99024498D01*
X128882685Y-98957459D01*
X128935489Y-98911704D01*
X128987000Y-98900498D01*
X130153186Y-98900498D01*
X130153194Y-98900498D01*
X130190069Y-98897596D01*
X130332684Y-98856162D01*
X130343987Y-98853252D01*
X130346928Y-98852025D01*
X130347874Y-98851751D01*
X130347888Y-98851744D01*
X130347898Y-98851742D01*
X130347906Y-98851736D01*
X130354630Y-98848829D01*
X130356073Y-98848215D01*
X130627706Y-98735036D01*
X130675398Y-98725498D01*
X130961610Y-98725498D01*
X130961610Y-98725497D01*
X131032531Y-98711391D01*
X131082454Y-98701461D01*
X131115794Y-98687650D01*
X131196288Y-98654310D01*
X131262360Y-98610161D01*
X131298735Y-98585856D01*
X131385860Y-98498731D01*
X131385861Y-98498729D01*
X131392927Y-98491663D01*
X131392930Y-98491659D01*
X131785936Y-98098652D01*
X131822597Y-98073317D01*
X132350719Y-97834948D01*
X132391422Y-97814317D01*
X132391423Y-97814315D01*
X132396626Y-97811679D01*
X132396643Y-97811712D01*
X132409284Y-97805163D01*
X132426547Y-97798013D01*
X132574035Y-97699464D01*
X132699464Y-97574035D01*
X132798013Y-97426547D01*
X132802371Y-97416027D01*
X132809431Y-97398982D01*
X132865894Y-97262666D01*
X132870932Y-97237341D01*
X132898048Y-97101017D01*
X132900500Y-97088691D01*
X132900500Y-96911309D01*
X132900500Y-96911306D01*
X132900499Y-96911304D01*
X132865896Y-96737341D01*
X132865893Y-96737332D01*
X132798016Y-96573459D01*
X132798009Y-96573446D01*
X132699464Y-96425965D01*
X132699461Y-96425961D01*
X132574038Y-96300538D01*
X132574034Y-96300535D01*
X132426553Y-96201990D01*
X132426540Y-96201983D01*
X132262667Y-96134106D01*
X132262658Y-96134103D01*
X132088694Y-96099500D01*
X132088691Y-96099500D01*
X131911309Y-96099500D01*
X131911306Y-96099500D01*
X131737341Y-96134103D01*
X131737332Y-96134106D01*
X131573459Y-96201983D01*
X131573446Y-96201990D01*
X131425965Y-96300535D01*
X131425961Y-96300538D01*
X131300538Y-96425961D01*
X131300535Y-96425965D01*
X131201986Y-96573453D01*
X131185021Y-96614412D01*
X131175072Y-96633533D01*
X131165058Y-96649266D01*
X131165051Y-96649280D01*
X130926679Y-97177401D01*
X130901339Y-97214069D01*
X130702480Y-97412928D01*
X130684823Y-97422569D01*
X130670071Y-97436247D01*
X130654783Y-97438972D01*
X130641157Y-97446413D01*
X130621092Y-97444978D01*
X130601286Y-97448509D01*
X130574680Y-97441658D01*
X130571465Y-97441429D01*
X130567107Y-97439709D01*
X130355854Y-97351687D01*
X130354267Y-97351013D01*
X130347902Y-97348256D01*
X130347898Y-97348254D01*
X130347892Y-97348252D01*
X130344204Y-97346655D01*
X130341225Y-97345617D01*
X130336825Y-97343823D01*
X130336725Y-97343783D01*
X130336476Y-97343684D01*
X130278335Y-97324491D01*
X130278332Y-97324490D01*
X130278326Y-97324489D01*
X130268305Y-97323327D01*
X130247994Y-97319229D01*
X130190070Y-97302400D01*
X130190067Y-97302399D01*
X130153201Y-97299498D01*
X130153194Y-97299498D01*
X128987000Y-97299498D01*
X128919961Y-97279813D01*
X128874206Y-97227009D01*
X128863000Y-97175498D01*
X128863000Y-96934311D01*
X128862999Y-96934296D01*
X128862343Y-96925965D01*
X128860098Y-96897429D01*
X128859286Y-96894635D01*
X128815717Y-96744670D01*
X128814244Y-96739600D01*
X128730581Y-96598133D01*
X128730579Y-96598131D01*
X128730576Y-96598127D01*
X128614370Y-96481921D01*
X128614362Y-96481915D01*
X128495808Y-96411803D01*
X128472898Y-96398254D01*
X128472897Y-96398253D01*
X128472896Y-96398253D01*
X128472893Y-96398252D01*
X128315073Y-96352400D01*
X128315067Y-96352399D01*
X128278201Y-96349498D01*
X128278194Y-96349498D01*
X126971806Y-96349498D01*
X126971798Y-96349498D01*
X126934932Y-96352399D01*
X126934926Y-96352400D01*
X126777106Y-96398252D01*
X126777103Y-96398253D01*
X126635637Y-96481915D01*
X126635629Y-96481921D01*
X126519423Y-96598127D01*
X126519417Y-96598135D01*
X126435755Y-96739601D01*
X126434884Y-96742600D01*
X126433561Y-96744670D01*
X126432656Y-96746763D01*
X126432318Y-96746616D01*
X126397275Y-96801483D01*
X126333801Y-96830687D01*
X126271963Y-96823988D01*
X125859490Y-96668065D01*
X125859478Y-96668061D01*
X125859441Y-96668047D01*
X125859435Y-96668045D01*
X125842393Y-96661603D01*
X125799053Y-96647419D01*
X125796428Y-96647079D01*
X125788225Y-96644350D01*
X125787006Y-96643504D01*
X125779929Y-96641256D01*
X125762664Y-96634105D01*
X125588693Y-96599500D01*
X125588691Y-96599500D01*
X125411309Y-96599500D01*
X125411306Y-96599500D01*
X125237341Y-96634103D01*
X125237332Y-96634106D01*
X125073459Y-96701983D01*
X125073446Y-96701990D01*
X124925965Y-96800535D01*
X124925961Y-96800538D01*
X124800538Y-96925961D01*
X124800535Y-96925965D01*
X124701990Y-97073446D01*
X124701983Y-97073459D01*
X124634106Y-97237332D01*
X124634103Y-97237341D01*
X124599500Y-97411304D01*
X124599500Y-97588695D01*
X124634103Y-97762658D01*
X124634106Y-97762667D01*
X124701983Y-97926540D01*
X124701990Y-97926553D01*
X124800535Y-98074034D01*
X124800538Y-98074038D01*
X124925961Y-98199461D01*
X124925965Y-98199464D01*
X125073446Y-98298009D01*
X125073450Y-98298011D01*
X125073453Y-98298013D01*
X125141476Y-98326188D01*
X125195877Y-98370028D01*
X125217943Y-98436322D01*
X125200664Y-98504021D01*
X125149528Y-98551632D01*
X125094022Y-98564749D01*
X124097470Y-98564749D01*
X124030431Y-98545064D01*
X124023159Y-98540016D01*
X123946331Y-98482502D01*
X123946329Y-98482501D01*
X123811487Y-98432209D01*
X123811486Y-98432208D01*
X123811484Y-98432208D01*
X123751874Y-98425799D01*
X123751865Y-98425799D01*
X123249500Y-98425799D01*
X123182461Y-98406114D01*
X123136706Y-98353310D01*
X123125500Y-98301799D01*
X123125500Y-97797699D01*
X123145185Y-97730660D01*
X123166154Y-97712490D01*
X123163682Y-97710018D01*
X123200001Y-97673699D01*
X123700001Y-97673699D01*
X123751829Y-97673699D01*
X123751845Y-97673698D01*
X123811373Y-97667297D01*
X123811380Y-97667295D01*
X123946087Y-97617053D01*
X123946094Y-97617049D01*
X124061188Y-97530889D01*
X124061191Y-97530886D01*
X124147351Y-97415792D01*
X124147355Y-97415785D01*
X124197597Y-97281078D01*
X124197599Y-97281071D01*
X124204000Y-97221543D01*
X124204001Y-97221526D01*
X124204001Y-96934749D01*
X123700001Y-96934749D01*
X123700001Y-97673699D01*
X123200001Y-97673699D01*
X123200001Y-96434749D01*
X123700001Y-96434749D01*
X124204001Y-96434749D01*
X124204001Y-96147971D01*
X124204000Y-96147954D01*
X124197599Y-96088426D01*
X124197597Y-96088419D01*
X124147355Y-95953712D01*
X124147351Y-95953705D01*
X124061191Y-95838611D01*
X124061188Y-95838608D01*
X123946094Y-95752448D01*
X123946087Y-95752444D01*
X123811380Y-95702202D01*
X123811373Y-95702200D01*
X123751845Y-95695799D01*
X123700001Y-95695799D01*
X123700001Y-96434749D01*
X123200001Y-96434749D01*
X123200001Y-95696721D01*
X123162936Y-95660583D01*
X123151704Y-95640618D01*
X123136706Y-95623310D01*
X123133389Y-95608065D01*
X123128677Y-95599689D01*
X123129292Y-95589230D01*
X123125500Y-95571799D01*
X123125500Y-94938393D01*
X123125499Y-94938392D01*
X123107657Y-94848689D01*
X123113884Y-94779099D01*
X123156747Y-94723922D01*
X123222637Y-94700677D01*
X123229244Y-94700499D01*
X123725008Y-94700499D01*
X123725016Y-94700498D01*
X123725019Y-94700498D01*
X123822246Y-94690566D01*
X123827797Y-94689999D01*
X123994334Y-94634814D01*
X124143656Y-94542712D01*
X124227083Y-94459283D01*
X124239195Y-94451977D01*
X124246209Y-94443640D01*
X124278095Y-94428511D01*
X124512184Y-94356045D01*
X124548853Y-94350500D01*
X124571268Y-94350500D01*
X124571269Y-94350499D01*
X124647638Y-94335309D01*
X124735574Y-94317818D01*
X124735578Y-94317816D01*
X124735582Y-94317816D01*
X124780915Y-94299037D01*
X124890363Y-94253704D01*
X125029662Y-94160627D01*
X125803470Y-93386819D01*
X125864793Y-93353334D01*
X125891151Y-93350500D01*
X127543768Y-93350500D01*
X127543769Y-93350499D01*
X127708082Y-93317816D01*
X127708094Y-93317810D01*
X127713909Y-93316048D01*
X127714399Y-93317664D01*
X127750409Y-93310500D01*
X128709591Y-93310500D01*
X128745600Y-93317664D01*
X128746091Y-93316048D01*
X128751907Y-93317811D01*
X128751918Y-93317816D01*
X128906374Y-93348539D01*
X128916228Y-93350499D01*
X128916232Y-93350500D01*
X128916233Y-93350500D01*
X130083768Y-93350500D01*
X130083769Y-93350499D01*
X130248082Y-93317816D01*
X130294876Y-93298433D01*
X130402863Y-93253704D01*
X130542162Y-93160627D01*
X132090969Y-91611818D01*
X132152292Y-91578334D01*
X132178650Y-91575500D01*
X135120082Y-91575500D01*
X135182952Y-91592620D01*
X135532455Y-91798210D01*
X135830689Y-91973642D01*
X135885904Y-92006121D01*
X135896966Y-92010783D01*
X135907669Y-92018796D01*
X135979783Y-92045692D01*
X135982183Y-92046704D01*
X135982184Y-92046705D01*
X136009255Y-92058115D01*
X136009256Y-92058115D01*
X136009265Y-92058119D01*
X136015190Y-92059734D01*
X136017801Y-92060446D01*
X136017737Y-92060679D01*
X136028706Y-92063940D01*
X136039597Y-92068002D01*
X136095531Y-92109873D01*
X136119949Y-92175337D01*
X136105098Y-92243610D01*
X136083947Y-92271865D01*
X135970271Y-92385541D01*
X135845379Y-92557442D01*
X135748904Y-92746782D01*
X135683242Y-92948870D01*
X135683242Y-92948873D01*
X135672769Y-93015000D01*
X136566988Y-93015000D01*
X136534075Y-93072007D01*
X136500000Y-93199174D01*
X136500000Y-93330826D01*
X136534075Y-93457993D01*
X136566988Y-93515000D01*
X135672769Y-93515000D01*
X135683242Y-93581126D01*
X135683242Y-93581129D01*
X135748904Y-93783217D01*
X135845379Y-93972557D01*
X135970272Y-94144459D01*
X135970276Y-94144464D01*
X136120535Y-94294723D01*
X136120540Y-94294727D01*
X136292442Y-94419620D01*
X136481782Y-94516095D01*
X136683871Y-94581757D01*
X136750000Y-94592231D01*
X136750000Y-93698012D01*
X136807007Y-93730925D01*
X136934174Y-93765000D01*
X137065826Y-93765000D01*
X137192993Y-93730925D01*
X137250000Y-93698012D01*
X137250000Y-94592230D01*
X137316126Y-94581757D01*
X137316129Y-94581757D01*
X137518217Y-94516095D01*
X137707557Y-94419620D01*
X137802615Y-94350558D01*
X137868421Y-94327078D01*
X137936475Y-94342904D01*
X137985170Y-94393009D01*
X137999500Y-94450876D01*
X137999500Y-113875500D01*
X137979815Y-113942539D01*
X137927011Y-113988294D01*
X137875500Y-113999500D01*
X75624500Y-113999500D01*
X75557461Y-113979815D01*
X75511706Y-113927011D01*
X75500500Y-113875500D01*
X75500500Y-109378711D01*
X77649500Y-109378711D01*
X77649500Y-109621288D01*
X77681161Y-109861785D01*
X77743947Y-110096104D01*
X77810670Y-110257187D01*
X77836776Y-110320212D01*
X77958064Y-110530289D01*
X77958066Y-110530292D01*
X77958067Y-110530293D01*
X78105733Y-110722736D01*
X78105739Y-110722743D01*
X78277256Y-110894260D01*
X78277262Y-110894265D01*
X78469711Y-111041936D01*
X78679788Y-111163224D01*
X78903900Y-111256054D01*
X79138211Y-111318838D01*
X79318586Y-111342584D01*
X79378711Y-111350500D01*
X79378712Y-111350500D01*
X79621289Y-111350500D01*
X79669388Y-111344167D01*
X79861789Y-111318838D01*
X80096100Y-111256054D01*
X80320212Y-111163224D01*
X80530289Y-111041936D01*
X80722738Y-110894265D01*
X80894265Y-110722738D01*
X81041936Y-110530289D01*
X81163224Y-110320212D01*
X81256054Y-110096100D01*
X81318838Y-109861789D01*
X81350500Y-109621288D01*
X81350500Y-109378712D01*
X81348048Y-109360090D01*
X81331452Y-109234025D01*
X81318838Y-109138211D01*
X81256054Y-108903900D01*
X81256052Y-108903895D01*
X81190688Y-108746091D01*
X81163227Y-108679794D01*
X81163222Y-108679785D01*
X81041936Y-108469711D01*
X80894265Y-108277262D01*
X80894260Y-108277256D01*
X80722743Y-108105739D01*
X80722736Y-108105733D01*
X80530293Y-107958067D01*
X80530292Y-107958066D01*
X80530289Y-107958064D01*
X80320212Y-107836776D01*
X80236702Y-107802185D01*
X80096104Y-107743947D01*
X79861785Y-107681161D01*
X79790600Y-107671790D01*
X79621289Y-107649500D01*
X79621288Y-107649500D01*
X79378712Y-107649500D01*
X79378711Y-107649500D01*
X79138214Y-107681161D01*
X78903895Y-107743947D01*
X78679794Y-107836773D01*
X78679785Y-107836777D01*
X78469706Y-107958067D01*
X78277263Y-108105733D01*
X78277256Y-108105739D01*
X78105739Y-108277256D01*
X78105733Y-108277263D01*
X77958067Y-108469706D01*
X77836777Y-108679785D01*
X77836773Y-108679794D01*
X77743947Y-108903895D01*
X77681161Y-109138214D01*
X77649500Y-109378711D01*
X75500500Y-109378711D01*
X75500500Y-107552155D01*
X90325000Y-107552155D01*
X90325000Y-108250000D01*
X91349722Y-108250000D01*
X91305667Y-108326306D01*
X91275000Y-108440756D01*
X91275000Y-108559244D01*
X91305667Y-108673694D01*
X91349722Y-108750000D01*
X90325000Y-108750000D01*
X90325000Y-109447844D01*
X90331401Y-109507372D01*
X90331403Y-109507379D01*
X90381645Y-109642086D01*
X90381649Y-109642093D01*
X90467809Y-109757187D01*
X90467812Y-109757190D01*
X90582906Y-109843350D01*
X90582913Y-109843354D01*
X90717620Y-109893596D01*
X90717627Y-109893598D01*
X90777155Y-109899999D01*
X90777172Y-109900000D01*
X91475000Y-109900000D01*
X91475000Y-108875277D01*
X91551306Y-108919333D01*
X91665756Y-108950000D01*
X91784244Y-108950000D01*
X91898694Y-108919333D01*
X91975000Y-108875277D01*
X91975000Y-109900000D01*
X92672828Y-109900000D01*
X92672844Y-109899999D01*
X92732372Y-109893598D01*
X92732379Y-109893596D01*
X92867086Y-109843354D01*
X92867093Y-109843350D01*
X92982187Y-109757190D01*
X92982190Y-109757187D01*
X93068350Y-109642093D01*
X93068354Y-109642086D01*
X93098213Y-109562031D01*
X93140084Y-109506097D01*
X93205548Y-109481680D01*
X93273821Y-109496531D01*
X93302076Y-109517683D01*
X93352636Y-109568243D01*
X93352641Y-109568247D01*
X93508192Y-109681260D01*
X93530978Y-109697815D01*
X93647501Y-109757187D01*
X93727393Y-109797895D01*
X93727396Y-109797896D01*
X93832221Y-109831955D01*
X93937049Y-109866015D01*
X94154778Y-109900500D01*
X94154779Y-109900500D01*
X94375221Y-109900500D01*
X94375222Y-109900500D01*
X94592951Y-109866015D01*
X94802606Y-109797895D01*
X94999022Y-109697815D01*
X95177365Y-109568242D01*
X95333242Y-109412365D01*
X95462815Y-109234022D01*
X95562895Y-109037606D01*
X95562896Y-109037603D01*
X95610927Y-108889778D01*
X112834500Y-108889778D01*
X112834500Y-109110221D01*
X112868985Y-109327952D01*
X112937103Y-109537603D01*
X112937104Y-109537606D01*
X112990341Y-109642086D01*
X113018736Y-109697815D01*
X113037187Y-109734025D01*
X113166752Y-109912358D01*
X113166756Y-109912363D01*
X113322636Y-110068243D01*
X113322641Y-110068247D01*
X113478192Y-110181260D01*
X113500978Y-110197815D01*
X113617501Y-110257187D01*
X113697393Y-110297895D01*
X113697396Y-110297896D01*
X113802221Y-110331955D01*
X113907049Y-110366015D01*
X114124778Y-110400500D01*
X114124779Y-110400500D01*
X114345221Y-110400500D01*
X114345222Y-110400500D01*
X114562951Y-110366015D01*
X114772606Y-110297895D01*
X114969022Y-110197815D01*
X115147365Y-110068242D01*
X115197924Y-110017682D01*
X115259245Y-109984198D01*
X115328936Y-109989182D01*
X115384870Y-110031053D01*
X115401786Y-110062030D01*
X115431646Y-110142087D01*
X115431649Y-110142093D01*
X115517809Y-110257187D01*
X115517812Y-110257190D01*
X115632906Y-110343350D01*
X115632913Y-110343354D01*
X115767620Y-110393596D01*
X115767627Y-110393598D01*
X115827155Y-110399999D01*
X115827172Y-110400000D01*
X116525000Y-110400000D01*
X116525000Y-109375277D01*
X116601306Y-109419333D01*
X116715756Y-109450000D01*
X116834244Y-109450000D01*
X116948694Y-109419333D01*
X117025000Y-109375277D01*
X117025000Y-110400000D01*
X117722828Y-110400000D01*
X117722844Y-110399999D01*
X117782372Y-110393598D01*
X117782379Y-110393596D01*
X117917086Y-110343354D01*
X117917093Y-110343350D01*
X118032187Y-110257190D01*
X118032190Y-110257187D01*
X118118350Y-110142093D01*
X118118354Y-110142086D01*
X118168596Y-110007379D01*
X118168598Y-110007372D01*
X118174999Y-109947844D01*
X118175000Y-109947827D01*
X118175000Y-109378711D01*
X132149500Y-109378711D01*
X132149500Y-109621288D01*
X132181161Y-109861785D01*
X132243947Y-110096104D01*
X132310670Y-110257187D01*
X132336776Y-110320212D01*
X132458064Y-110530289D01*
X132458066Y-110530292D01*
X132458067Y-110530293D01*
X132605733Y-110722736D01*
X132605739Y-110722743D01*
X132777256Y-110894260D01*
X132777262Y-110894265D01*
X132969711Y-111041936D01*
X133179788Y-111163224D01*
X133403900Y-111256054D01*
X133638211Y-111318838D01*
X133818586Y-111342584D01*
X133878711Y-111350500D01*
X133878712Y-111350500D01*
X134121289Y-111350500D01*
X134169388Y-111344167D01*
X134361789Y-111318838D01*
X134596100Y-111256054D01*
X134820212Y-111163224D01*
X135030289Y-111041936D01*
X135222738Y-110894265D01*
X135394265Y-110722738D01*
X135541936Y-110530289D01*
X135663224Y-110320212D01*
X135756054Y-110096100D01*
X135818838Y-109861789D01*
X135850500Y-109621288D01*
X135850500Y-109378712D01*
X135848048Y-109360090D01*
X135831452Y-109234025D01*
X135818838Y-109138211D01*
X135756054Y-108903900D01*
X135750204Y-108889778D01*
X135724595Y-108827951D01*
X135663224Y-108679788D01*
X135541936Y-108469711D01*
X135394265Y-108277262D01*
X135394260Y-108277256D01*
X135222743Y-108105739D01*
X135222736Y-108105733D01*
X135030293Y-107958067D01*
X135030292Y-107958066D01*
X135030289Y-107958064D01*
X134820212Y-107836776D01*
X134736702Y-107802185D01*
X134596104Y-107743947D01*
X134361785Y-107681161D01*
X134121289Y-107649500D01*
X134121288Y-107649500D01*
X133878712Y-107649500D01*
X133878711Y-107649500D01*
X133638214Y-107681161D01*
X133403895Y-107743947D01*
X133179794Y-107836773D01*
X133179785Y-107836777D01*
X132969706Y-107958067D01*
X132777263Y-108105733D01*
X132777256Y-108105739D01*
X132605739Y-108277256D01*
X132605733Y-108277263D01*
X132458067Y-108469706D01*
X132336777Y-108679785D01*
X132336773Y-108679794D01*
X132243947Y-108903895D01*
X132181161Y-109138214D01*
X132149500Y-109378711D01*
X118175000Y-109378711D01*
X118175000Y-109250000D01*
X117150278Y-109250000D01*
X117194333Y-109173694D01*
X117225000Y-109059244D01*
X117225000Y-108940756D01*
X117194333Y-108826306D01*
X117150278Y-108750000D01*
X118175000Y-108750000D01*
X118175000Y-108052172D01*
X118174999Y-108052155D01*
X118168598Y-107992627D01*
X118168596Y-107992620D01*
X118118354Y-107857913D01*
X118118350Y-107857906D01*
X118032190Y-107742812D01*
X118032187Y-107742809D01*
X117917093Y-107656649D01*
X117917086Y-107656645D01*
X117782379Y-107606403D01*
X117782372Y-107606401D01*
X117722844Y-107600000D01*
X117025000Y-107600000D01*
X117025000Y-108624722D01*
X116948694Y-108580667D01*
X116834244Y-108550000D01*
X116715756Y-108550000D01*
X116601306Y-108580667D01*
X116525000Y-108624722D01*
X116525000Y-107600000D01*
X115827155Y-107600000D01*
X115767627Y-107606401D01*
X115767620Y-107606403D01*
X115632913Y-107656645D01*
X115632906Y-107656649D01*
X115517812Y-107742809D01*
X115517809Y-107742812D01*
X115431649Y-107857906D01*
X115431643Y-107857918D01*
X115401785Y-107937969D01*
X115359914Y-107993903D01*
X115294449Y-108018319D01*
X115226176Y-108003467D01*
X115197923Y-107982316D01*
X115147363Y-107931756D01*
X115147358Y-107931752D01*
X114969025Y-107802187D01*
X114969024Y-107802186D01*
X114969022Y-107802185D01*
X114854723Y-107743946D01*
X114772606Y-107702104D01*
X114772603Y-107702103D01*
X114562952Y-107633985D01*
X114454086Y-107616742D01*
X114345222Y-107599500D01*
X114124778Y-107599500D01*
X114052201Y-107610995D01*
X113907047Y-107633985D01*
X113697396Y-107702103D01*
X113697393Y-107702104D01*
X113500974Y-107802187D01*
X113322641Y-107931752D01*
X113322636Y-107931756D01*
X113166756Y-108087636D01*
X113166752Y-108087641D01*
X113037187Y-108265974D01*
X112937104Y-108462393D01*
X112937103Y-108462396D01*
X112868985Y-108672047D01*
X112834500Y-108889778D01*
X95610927Y-108889778D01*
X95624960Y-108846588D01*
X95624960Y-108846587D01*
X95631014Y-108827954D01*
X95631013Y-108827954D01*
X95631015Y-108827951D01*
X95665500Y-108610222D01*
X95665500Y-108389778D01*
X95631015Y-108172049D01*
X95592060Y-108052155D01*
X95562896Y-107962396D01*
X95562895Y-107962393D01*
X95509661Y-107857918D01*
X95462815Y-107765978D01*
X95416408Y-107702104D01*
X95333247Y-107587641D01*
X95333243Y-107587636D01*
X95177363Y-107431756D01*
X95177358Y-107431752D01*
X94999025Y-107302187D01*
X94999024Y-107302186D01*
X94999022Y-107302185D01*
X94936096Y-107270122D01*
X94802606Y-107202104D01*
X94802603Y-107202103D01*
X94592952Y-107133985D01*
X94484086Y-107116742D01*
X94375222Y-107099500D01*
X94154778Y-107099500D01*
X94082201Y-107110995D01*
X93937047Y-107133985D01*
X93727396Y-107202103D01*
X93727393Y-107202104D01*
X93530974Y-107302187D01*
X93352641Y-107431752D01*
X93352636Y-107431756D01*
X93302075Y-107482317D01*
X93240752Y-107515801D01*
X93171060Y-107510816D01*
X93115127Y-107468945D01*
X93098213Y-107437968D01*
X93068354Y-107357913D01*
X93068350Y-107357906D01*
X92982190Y-107242812D01*
X92982187Y-107242809D01*
X92867093Y-107156649D01*
X92867086Y-107156645D01*
X92732379Y-107106403D01*
X92732372Y-107106401D01*
X92672844Y-107100000D01*
X91975000Y-107100000D01*
X91975000Y-108124722D01*
X91898694Y-108080667D01*
X91784244Y-108050000D01*
X91665756Y-108050000D01*
X91551306Y-108080667D01*
X91475000Y-108124722D01*
X91475000Y-107100000D01*
X90777155Y-107100000D01*
X90717627Y-107106401D01*
X90717620Y-107106403D01*
X90582913Y-107156645D01*
X90582906Y-107156649D01*
X90467812Y-107242809D01*
X90467809Y-107242812D01*
X90381649Y-107357906D01*
X90381645Y-107357913D01*
X90331403Y-107492620D01*
X90331401Y-107492627D01*
X90325000Y-107552155D01*
X75500500Y-107552155D01*
X75500500Y-99499999D01*
X85793551Y-99499999D01*
X85793552Y-99500000D01*
X87286448Y-99500000D01*
X87286448Y-99499999D01*
X86540000Y-98753552D01*
X85793551Y-99499999D01*
X75500500Y-99499999D01*
X75500500Y-98313428D01*
X84590000Y-98313428D01*
X84590000Y-98486571D01*
X84617085Y-98657584D01*
X84670591Y-98822257D01*
X84749195Y-98976524D01*
X84850967Y-99116602D01*
X84973397Y-99239032D01*
X85113475Y-99340804D01*
X85201031Y-99385416D01*
X85203224Y-99383224D01*
X85886448Y-98700000D01*
X87193552Y-98700000D01*
X87878967Y-99385415D01*
X87966523Y-99340804D01*
X88106602Y-99239032D01*
X88229032Y-99116602D01*
X88330804Y-98976524D01*
X88409408Y-98822257D01*
X88462914Y-98657584D01*
X88490000Y-98486571D01*
X88490000Y-98313428D01*
X88462914Y-98142415D01*
X88409408Y-97977742D01*
X88330804Y-97823475D01*
X88229032Y-97683397D01*
X88106602Y-97560967D01*
X87966524Y-97459195D01*
X87878968Y-97414583D01*
X87878966Y-97414583D01*
X87193550Y-98100000D01*
X85886449Y-98100000D01*
X85201032Y-97414583D01*
X85201030Y-97414583D01*
X85113478Y-97459194D01*
X84973397Y-97560967D01*
X84850967Y-97683397D01*
X84749195Y-97823475D01*
X84670591Y-97977742D01*
X84617085Y-98142415D01*
X84590000Y-98313428D01*
X75500500Y-98313428D01*
X75500500Y-97300000D01*
X85793551Y-97300000D01*
X86540000Y-98046448D01*
X87286448Y-97300000D01*
X85793551Y-97300000D01*
X75500500Y-97300000D01*
X75500500Y-95896741D01*
X88240000Y-95896741D01*
X88242732Y-95937034D01*
X88286041Y-96111180D01*
X88365768Y-96271935D01*
X88365770Y-96271938D01*
X88478196Y-96411802D01*
X88478197Y-96411803D01*
X88618061Y-96524229D01*
X88618064Y-96524231D01*
X88778819Y-96603958D01*
X88952965Y-96647267D01*
X88993258Y-96650000D01*
X89990000Y-96650000D01*
X90490000Y-96650000D01*
X91486742Y-96650000D01*
X91527034Y-96647267D01*
X91701180Y-96603958D01*
X91861935Y-96524231D01*
X91861938Y-96524229D01*
X92001802Y-96411803D01*
X92001803Y-96411802D01*
X92114229Y-96271938D01*
X92114231Y-96271935D01*
X92193958Y-96111180D01*
X92237267Y-95937034D01*
X92240000Y-95896741D01*
X92240000Y-95750000D01*
X90490000Y-95750000D01*
X90490000Y-96650000D01*
X89990000Y-96650000D01*
X89990000Y-95750000D01*
X88240000Y-95750000D01*
X88240000Y-95896741D01*
X75500500Y-95896741D01*
X75500500Y-88103218D01*
X88239500Y-88103218D01*
X88239500Y-88896781D01*
X88242234Y-88937102D01*
X88285567Y-89111350D01*
X88365346Y-89272209D01*
X88463129Y-89393856D01*
X88477841Y-89412159D01*
X88617790Y-89524653D01*
X88778651Y-89604433D01*
X88880113Y-89629665D01*
X88940420Y-89664947D01*
X88972079Y-89727233D01*
X88965038Y-89796747D01*
X88921533Y-89851419D01*
X88880113Y-89870335D01*
X88778649Y-89895567D01*
X88617790Y-89975346D01*
X88477841Y-90087840D01*
X88477840Y-90087841D01*
X88365346Y-90227790D01*
X88285567Y-90388649D01*
X88242234Y-90562897D01*
X88240896Y-90582637D01*
X88239500Y-90603216D01*
X88239500Y-91396784D01*
X88240072Y-91405212D01*
X88242234Y-91437102D01*
X88285567Y-91611350D01*
X88365346Y-91772209D01*
X88477840Y-91912158D01*
X88478001Y-91912319D01*
X88478067Y-91912440D01*
X88482053Y-91917399D01*
X88481164Y-91918112D01*
X88511486Y-91973642D01*
X88506502Y-92043334D01*
X88481533Y-92082183D01*
X88482053Y-92082601D01*
X88478126Y-92087486D01*
X88478001Y-92087681D01*
X88477840Y-92087841D01*
X88365346Y-92227790D01*
X88285567Y-92388649D01*
X88242234Y-92562897D01*
X88239500Y-92603218D01*
X88239500Y-93396781D01*
X88242234Y-93437102D01*
X88285567Y-93611350D01*
X88365346Y-93772209D01*
X88440032Y-93865122D01*
X88477841Y-93912159D01*
X88617790Y-94024653D01*
X88778651Y-94104433D01*
X88881149Y-94129922D01*
X88941456Y-94165204D01*
X88973115Y-94227489D01*
X88966074Y-94297003D01*
X88922569Y-94351676D01*
X88881150Y-94370591D01*
X88778827Y-94396038D01*
X88778820Y-94396041D01*
X88618064Y-94475768D01*
X88618061Y-94475770D01*
X88478197Y-94588196D01*
X88478196Y-94588197D01*
X88365770Y-94728061D01*
X88365768Y-94728064D01*
X88286041Y-94888819D01*
X88242732Y-95062965D01*
X88240000Y-95103258D01*
X88240000Y-95250000D01*
X92240000Y-95250000D01*
X92240000Y-95103258D01*
X92237267Y-95062965D01*
X92193958Y-94888819D01*
X92114231Y-94728064D01*
X92114229Y-94728061D01*
X92001803Y-94588197D01*
X92001802Y-94588196D01*
X91861938Y-94475770D01*
X91861935Y-94475768D01*
X91701179Y-94396041D01*
X91701172Y-94396038D01*
X91598849Y-94370591D01*
X91538542Y-94335309D01*
X91506884Y-94273023D01*
X91513926Y-94203509D01*
X91557431Y-94148837D01*
X91598847Y-94129923D01*
X91701349Y-94104433D01*
X91862210Y-94024653D01*
X92002159Y-93912159D01*
X92114653Y-93772210D01*
X92194433Y-93611349D01*
X92237766Y-93437100D01*
X92240500Y-93396784D01*
X92240500Y-92603216D01*
X92237766Y-92562900D01*
X92194433Y-92388651D01*
X92114653Y-92227790D01*
X92002159Y-92087841D01*
X92001999Y-92087681D01*
X92001932Y-92087559D01*
X91997947Y-92082601D01*
X91998835Y-92081887D01*
X91968514Y-92026358D01*
X91973498Y-91956666D01*
X91998466Y-91917816D01*
X91997947Y-91917399D01*
X92001873Y-91912513D01*
X92001999Y-91912319D01*
X92002154Y-91912162D01*
X92002159Y-91912159D01*
X92114653Y-91772210D01*
X92194433Y-91611349D01*
X92237766Y-91437100D01*
X92240500Y-91396784D01*
X92240500Y-90603216D01*
X92237766Y-90562900D01*
X92194433Y-90388651D01*
X92114653Y-90227790D01*
X92002159Y-90087841D01*
X91984988Y-90074038D01*
X91862209Y-89975346D01*
X91701351Y-89895568D01*
X91701349Y-89895567D01*
X91632862Y-89878535D01*
X91599884Y-89870334D01*
X91595803Y-89867946D01*
X91591080Y-89867795D01*
X91565935Y-89850472D01*
X91539577Y-89835051D01*
X91537435Y-89830837D01*
X91533543Y-89828156D01*
X91521755Y-89799988D01*
X91507919Y-89772766D01*
X91508395Y-89768062D01*
X91506571Y-89763703D01*
X91511882Y-89733638D01*
X91514960Y-89703252D01*
X91517903Y-89699552D01*
X91518726Y-89694898D01*
X91539453Y-89672471D01*
X91558466Y-89648580D01*
X91563829Y-89646098D01*
X91566150Y-89643588D01*
X91594948Y-89631702D01*
X91598708Y-89629963D01*
X91599166Y-89629844D01*
X91701349Y-89604433D01*
X91702969Y-89603629D01*
X92265764Y-89421509D01*
X92335604Y-89419599D01*
X92392050Y-89452239D01*
X92670688Y-89733638D01*
X92708303Y-89771625D01*
X92749836Y-89809164D01*
X92749838Y-89809165D01*
X92749839Y-89809166D01*
X92753757Y-89812058D01*
X92767807Y-89824149D01*
X92783072Y-89839414D01*
X92923212Y-89941232D01*
X93077555Y-90019873D01*
X93242299Y-90073402D01*
X93413389Y-90100500D01*
X93413390Y-90100500D01*
X93586610Y-90100500D01*
X93586611Y-90100500D01*
X93757701Y-90073402D01*
X93922445Y-90019873D01*
X94076788Y-89941232D01*
X94216928Y-89839414D01*
X94339414Y-89716928D01*
X94441232Y-89576788D01*
X94519873Y-89422445D01*
X94573402Y-89257701D01*
X94600500Y-89086611D01*
X94600500Y-88913389D01*
X94573402Y-88742299D01*
X94519873Y-88577555D01*
X94441232Y-88423212D01*
X94339414Y-88283072D01*
X94216928Y-88160586D01*
X94076788Y-88058768D01*
X93922445Y-87980126D01*
X93847652Y-87955824D01*
X93843762Y-87954560D01*
X93835171Y-87951128D01*
X93827453Y-87949261D01*
X93822923Y-87947789D01*
X93822908Y-87947785D01*
X93757702Y-87926598D01*
X93693213Y-87916383D01*
X93683464Y-87914435D01*
X93629976Y-87901499D01*
X93571444Y-87868655D01*
X93542162Y-87839373D01*
X93542161Y-87839372D01*
X93542160Y-87839371D01*
X93402866Y-87746297D01*
X93402863Y-87746296D01*
X93277815Y-87694500D01*
X93248082Y-87682184D01*
X93248074Y-87682182D01*
X93083771Y-87649500D01*
X93083767Y-87649500D01*
X92504771Y-87649500D01*
X92466594Y-87643477D01*
X91702968Y-87396370D01*
X91701349Y-87395567D01*
X91693538Y-87393624D01*
X91690686Y-87392848D01*
X91690621Y-87392829D01*
X91653144Y-87382641D01*
X91647323Y-87381640D01*
X91647383Y-87381287D01*
X91637573Y-87379706D01*
X91527104Y-87352234D01*
X91527105Y-87352234D01*
X91498302Y-87350281D01*
X91486784Y-87349500D01*
X88993216Y-87349500D01*
X88977089Y-87350593D01*
X88952897Y-87352234D01*
X88778649Y-87395567D01*
X88617790Y-87475346D01*
X88477841Y-87587840D01*
X88477840Y-87587841D01*
X88365346Y-87727790D01*
X88285567Y-87888649D01*
X88242234Y-88062897D01*
X88239500Y-88103218D01*
X75500500Y-88103218D01*
X75500500Y-86699999D01*
X85793551Y-86699999D01*
X85793552Y-86700000D01*
X87286448Y-86700000D01*
X87286448Y-86699999D01*
X86540000Y-85953552D01*
X85793551Y-86699999D01*
X75500500Y-86699999D01*
X75500500Y-85513428D01*
X84590000Y-85513428D01*
X84590000Y-85686571D01*
X84617085Y-85857584D01*
X84670591Y-86022257D01*
X84749195Y-86176524D01*
X84850967Y-86316602D01*
X84973397Y-86439032D01*
X85113475Y-86540804D01*
X85201031Y-86585416D01*
X85203224Y-86583224D01*
X85886448Y-85900000D01*
X87193552Y-85900000D01*
X87878967Y-86585415D01*
X87966523Y-86540804D01*
X88106602Y-86439032D01*
X88229032Y-86316602D01*
X88330804Y-86176524D01*
X88409408Y-86022257D01*
X88462914Y-85857584D01*
X88490000Y-85686571D01*
X88490000Y-85513428D01*
X88462914Y-85342415D01*
X88409408Y-85177742D01*
X88330804Y-85023475D01*
X88229032Y-84883397D01*
X88106602Y-84760967D01*
X87966524Y-84659195D01*
X87878968Y-84614583D01*
X87878966Y-84614583D01*
X87193550Y-85300000D01*
X85886449Y-85300000D01*
X85201032Y-84614583D01*
X85201030Y-84614583D01*
X85113478Y-84659194D01*
X84973397Y-84760967D01*
X84850967Y-84883397D01*
X84749195Y-85023475D01*
X84670591Y-85177742D01*
X84617085Y-85342415D01*
X84590000Y-85513428D01*
X75500500Y-85513428D01*
X75500500Y-84500000D01*
X85793551Y-84500000D01*
X86540000Y-85246448D01*
X87286448Y-84500000D01*
X85793551Y-84500000D01*
X75500500Y-84500000D01*
X75500500Y-73878711D01*
X77649500Y-73878711D01*
X77649500Y-74121288D01*
X77681161Y-74361785D01*
X77743947Y-74596104D01*
X77836773Y-74820205D01*
X77836776Y-74820212D01*
X77958064Y-75030289D01*
X77958066Y-75030292D01*
X77958067Y-75030293D01*
X78105733Y-75222736D01*
X78105739Y-75222743D01*
X78277256Y-75394260D01*
X78277262Y-75394265D01*
X78469711Y-75541936D01*
X78679788Y-75663224D01*
X78903900Y-75756054D01*
X79138211Y-75818838D01*
X79318586Y-75842584D01*
X79378711Y-75850500D01*
X79378712Y-75850500D01*
X79621289Y-75850500D01*
X79669388Y-75844167D01*
X79861789Y-75818838D01*
X80096100Y-75756054D01*
X80320212Y-75663224D01*
X80530289Y-75541936D01*
X80722738Y-75394265D01*
X80894265Y-75222738D01*
X81041936Y-75030289D01*
X81163224Y-74820212D01*
X81256054Y-74596100D01*
X81318838Y-74361789D01*
X81350500Y-74121288D01*
X81350500Y-73878712D01*
X81350500Y-73878711D01*
X132149500Y-73878711D01*
X132149500Y-74121288D01*
X132181161Y-74361785D01*
X132243947Y-74596104D01*
X132336773Y-74820205D01*
X132336776Y-74820212D01*
X132458064Y-75030289D01*
X132458066Y-75030292D01*
X132458067Y-75030293D01*
X132605733Y-75222736D01*
X132605739Y-75222743D01*
X132777256Y-75394260D01*
X132777262Y-75394265D01*
X132969711Y-75541936D01*
X133179788Y-75663224D01*
X133403900Y-75756054D01*
X133638211Y-75818838D01*
X133818586Y-75842584D01*
X133878711Y-75850500D01*
X133878712Y-75850500D01*
X134121289Y-75850500D01*
X134169388Y-75844167D01*
X134361789Y-75818838D01*
X134596100Y-75756054D01*
X134820212Y-75663224D01*
X135030289Y-75541936D01*
X135222738Y-75394265D01*
X135394265Y-75222738D01*
X135541936Y-75030289D01*
X135663224Y-74820212D01*
X135756054Y-74596100D01*
X135818838Y-74361789D01*
X135850500Y-74121288D01*
X135850500Y-73878712D01*
X135818838Y-73638211D01*
X135756054Y-73403900D01*
X135663224Y-73179788D01*
X135541936Y-72969711D01*
X135394265Y-72777262D01*
X135394260Y-72777256D01*
X135222743Y-72605739D01*
X135222736Y-72605733D01*
X135030293Y-72458067D01*
X135030292Y-72458066D01*
X135030289Y-72458064D01*
X134820212Y-72336776D01*
X134820205Y-72336773D01*
X134596104Y-72243947D01*
X134361785Y-72181161D01*
X134121289Y-72149500D01*
X134121288Y-72149500D01*
X133878712Y-72149500D01*
X133878711Y-72149500D01*
X133638214Y-72181161D01*
X133403895Y-72243947D01*
X133179794Y-72336773D01*
X133179785Y-72336777D01*
X132969706Y-72458067D01*
X132777263Y-72605733D01*
X132777256Y-72605739D01*
X132605739Y-72777256D01*
X132605733Y-72777263D01*
X132458067Y-72969706D01*
X132336777Y-73179785D01*
X132336773Y-73179794D01*
X132243947Y-73403895D01*
X132181161Y-73638214D01*
X132149500Y-73878711D01*
X81350500Y-73878711D01*
X81318838Y-73638211D01*
X81256054Y-73403900D01*
X81163224Y-73179788D01*
X81041936Y-72969711D01*
X80894265Y-72777262D01*
X80894260Y-72777256D01*
X80722743Y-72605739D01*
X80722736Y-72605733D01*
X80530293Y-72458067D01*
X80530292Y-72458066D01*
X80530289Y-72458064D01*
X80320212Y-72336776D01*
X80320205Y-72336773D01*
X80096104Y-72243947D01*
X79861785Y-72181161D01*
X79621289Y-72149500D01*
X79621288Y-72149500D01*
X79378712Y-72149500D01*
X79378711Y-72149500D01*
X79138214Y-72181161D01*
X78903895Y-72243947D01*
X78679794Y-72336773D01*
X78679785Y-72336777D01*
X78469706Y-72458067D01*
X78277263Y-72605733D01*
X78277256Y-72605739D01*
X78105739Y-72777256D01*
X78105733Y-72777263D01*
X77958067Y-72969706D01*
X77836777Y-73179785D01*
X77836773Y-73179794D01*
X77743947Y-73403895D01*
X77681161Y-73638214D01*
X77649500Y-73878711D01*
X75500500Y-73878711D01*
X75500500Y-69624500D01*
X75520185Y-69557461D01*
X75572989Y-69511706D01*
X75624500Y-69500500D01*
X137875500Y-69500500D01*
X137942539Y-69520185D01*
G37*
%TD.AperFunction*%
%TD*%
%TA.AperFunction,Conductor*%
%TO.N,Net-(U2-+)*%
G36*
X117859419Y-97969135D02*
G01*
X118368502Y-98221775D01*
X118374388Y-98228521D01*
X118375000Y-98232254D01*
X118375000Y-98467745D01*
X118371573Y-98476018D01*
X118368501Y-98478225D01*
X117859420Y-98730863D01*
X117850486Y-98731471D01*
X117845592Y-98728287D01*
X117614459Y-98476018D01*
X117506240Y-98357902D01*
X117503179Y-98349489D01*
X117506240Y-98342097D01*
X117845593Y-97971711D01*
X117853708Y-97967927D01*
X117859419Y-97969135D01*
G37*
%TD.AperFunction*%
%TD*%
%TA.AperFunction,Conductor*%
%TO.N,Net-(U2-+)*%
G36*
X117507747Y-96155844D02*
G01*
X117892628Y-96495880D01*
X117896559Y-96503926D01*
X117894850Y-96510773D01*
X117628425Y-96944425D01*
X117621174Y-96949680D01*
X117618456Y-96950000D01*
X117381544Y-96950000D01*
X117373271Y-96946573D01*
X117371575Y-96944425D01*
X117105149Y-96510773D01*
X117103738Y-96501930D01*
X117107369Y-96495881D01*
X117492253Y-96155843D01*
X117500722Y-96152934D01*
X117507747Y-96155844D01*
G37*
%TD.AperFunction*%
%TD*%
%TA.AperFunction,Conductor*%
%TO.N,/VDD*%
G36*
X120325661Y-77490420D02*
G01*
X121140237Y-78021625D01*
X121145295Y-78029014D01*
X121144662Y-78035886D01*
X120921312Y-78577457D01*
X120914990Y-78583798D01*
X120914957Y-78583812D01*
X120373386Y-78807162D01*
X120364431Y-78807148D01*
X120359125Y-78802737D01*
X119827920Y-77988161D01*
X119826271Y-77979359D01*
X119829445Y-77973499D01*
X120310998Y-77491946D01*
X120319270Y-77488520D01*
X120325661Y-77490420D01*
G37*
%TD.AperFunction*%
%TD*%
%TA.AperFunction,Conductor*%
%TO.N,/Power/Control*%
G36*
X122867448Y-86955685D02*
G01*
X123036757Y-87124994D01*
X123038847Y-87127835D01*
X123107954Y-87259676D01*
X123117018Y-87276967D01*
X123117823Y-87285886D01*
X123112087Y-87292762D01*
X123110829Y-87293329D01*
X122447452Y-87546636D01*
X122438500Y-87546386D01*
X122432456Y-87540153D01*
X122329109Y-87288632D01*
X122317211Y-87259674D01*
X122317236Y-87250721D01*
X122322405Y-87244971D01*
X122853549Y-86953698D01*
X122862451Y-86952726D01*
X122867448Y-86955685D01*
G37*
%TD.AperFunction*%
%TD*%
%TA.AperFunction,Conductor*%
%TO.N,Net-(U2--)*%
G36*
X122095351Y-93395937D02*
G01*
X122100406Y-93403329D01*
X122100643Y-93405187D01*
X122150537Y-94468838D01*
X122147502Y-94477262D01*
X122147123Y-94477659D01*
X121980989Y-94643793D01*
X121972716Y-94647220D01*
X121965945Y-94645061D01*
X121346026Y-94205114D01*
X121341262Y-94197532D01*
X121341766Y-94191673D01*
X121584601Y-93505486D01*
X121590591Y-93498832D01*
X121593218Y-93497942D01*
X122086552Y-93394285D01*
X122095351Y-93395937D01*
G37*
%TD.AperFunction*%
%TD*%
%TA.AperFunction,Conductor*%
%TO.N,Net-(BZG05C5V1-M3-08-K)*%
G36*
X127508264Y-89007279D02*
G01*
X128055209Y-89555196D01*
X128058629Y-89563472D01*
X128056164Y-89570645D01*
X127628513Y-90120483D01*
X127620729Y-90124910D01*
X127619278Y-90125000D01*
X127380722Y-90125000D01*
X127372449Y-90121573D01*
X127371487Y-90120483D01*
X126943835Y-89570645D01*
X126941460Y-89562011D01*
X126944789Y-89555198D01*
X127491721Y-89007293D01*
X127499990Y-89003860D01*
X127508264Y-89007279D01*
G37*
%TD.AperFunction*%
%TD*%
M02*
