%TF.GenerationSoftware,KiCad,Pcbnew,9.0.3*%
%TF.CreationDate,2025-07-28T01:45:31+03:00*%
%TF.ProjectId,Charger USB,43686172-6765-4722-9055-53422e6b6963,rev?*%
%TF.SameCoordinates,Original*%
%TF.FileFunction,Soldermask,Bot*%
%TF.FilePolarity,Negative*%
%FSLAX46Y46*%
G04 Gerber Fmt 4.6, Leading zero omitted, Abs format (unit mm)*
G04 Created by KiCad (PCBNEW 9.0.3) date 2025-07-28 01:45:31*
%MOMM*%
%LPD*%
G01*
G04 APERTURE LIST*
G04 Aperture macros list*
%AMRoundRect*
0 Rectangle with rounded corners*
0 $1 Rounding radius*
0 $2 $3 $4 $5 $6 $7 $8 $9 X,Y pos of 4 corners*
0 Add a 4 corners polygon primitive as box body*
4,1,4,$2,$3,$4,$5,$6,$7,$8,$9,$2,$3,0*
0 Add four circle primitives for the rounded corners*
1,1,$1+$1,$2,$3*
1,1,$1+$1,$4,$5*
1,1,$1+$1,$6,$7*
1,1,$1+$1,$8,$9*
0 Add four rect primitives between the rounded corners*
20,1,$1+$1,$2,$3,$4,$5,0*
20,1,$1+$1,$4,$5,$6,$7,0*
20,1,$1+$1,$6,$7,$8,$9,0*
20,1,$1+$1,$8,$9,$2,$3,0*%
G04 Aperture macros list end*
%ADD10R,1.700000X1.700000*%
%ADD11O,1.700000X1.700000*%
%ADD12R,1.800000X1.800000*%
%ADD13C,1.800000*%
%ADD14C,3.200000*%
%ADD15O,2.900000X1.200000*%
%ADD16RoundRect,0.150000X0.875000X0.150000X-0.875000X0.150000X-0.875000X-0.150000X0.875000X-0.150000X0*%
%ADD17RoundRect,0.200000X-0.200000X-0.275000X0.200000X-0.275000X0.200000X0.275000X-0.200000X0.275000X0*%
%ADD18RoundRect,0.250000X-0.475000X0.250000X-0.475000X-0.250000X0.475000X-0.250000X0.475000X0.250000X0*%
%ADD19RoundRect,0.250000X-0.262500X-0.450000X0.262500X-0.450000X0.262500X0.450000X-0.262500X0.450000X0*%
%ADD20RoundRect,0.225000X-0.250000X0.225000X-0.250000X-0.225000X0.250000X-0.225000X0.250000X0.225000X0*%
G04 APERTURE END LIST*
D10*
%TO.C,J2*%
X137000000Y-90725000D03*
D11*
X137000000Y-93265000D03*
%TD*%
D12*
%TO.C,LED2*%
X116775000Y-109000000D03*
D13*
X114235000Y-109000000D03*
%TD*%
D14*
%TO.C,REF\u002A\u002A*%
X79500000Y-74000000D03*
%TD*%
%TO.C,REF\u002A\u002A*%
X134000000Y-109500000D03*
%TD*%
D15*
%TO.C,J1*%
X86540000Y-85600000D03*
X86540000Y-98400000D03*
%TD*%
D14*
%TO.C,REF\u002A\u002A*%
X134000000Y-74000000D03*
%TD*%
D12*
%TO.C,LED1*%
X91725000Y-108500000D03*
D13*
X94265000Y-108500000D03*
%TD*%
D14*
%TO.C,REF\u002A\u002A*%
X79500000Y-109500000D03*
%TD*%
D16*
%TO.C,U1*%
X109800000Y-83690000D03*
X109800000Y-84960000D03*
X109800000Y-86230000D03*
X109800000Y-87500000D03*
X109800000Y-88770000D03*
X109800000Y-90040000D03*
X109800000Y-91310000D03*
X109800000Y-92580000D03*
X109800000Y-93850000D03*
X109800000Y-95120000D03*
X109800000Y-96390000D03*
X109800000Y-97660000D03*
X109800000Y-98930000D03*
X109800000Y-100200000D03*
X100500000Y-100200000D03*
X100500000Y-98930000D03*
X100500000Y-97660000D03*
X100500000Y-96390000D03*
X100500000Y-95120000D03*
X100500000Y-93850000D03*
X100500000Y-92580000D03*
X100500000Y-91310000D03*
X100500000Y-90040000D03*
X100500000Y-88770000D03*
X100500000Y-87500000D03*
X100500000Y-86230000D03*
X100500000Y-84960000D03*
X100500000Y-83690000D03*
%TD*%
D17*
%TO.C,R6*%
X95675000Y-100500000D03*
X97325000Y-100500000D03*
%TD*%
D18*
%TO.C,C1*%
X95500000Y-93550000D03*
X95500000Y-95450000D03*
%TD*%
D19*
%TO.C,R5*%
X112675000Y-100500000D03*
X114500000Y-100500000D03*
%TD*%
D10*
%TO.C,J3*%
X109540000Y-79500000D03*
D11*
X107000000Y-79500000D03*
X104460000Y-79500000D03*
X101920000Y-79500000D03*
X99380000Y-79500000D03*
%TD*%
D20*
%TO.C,C2*%
X98000000Y-93725000D03*
X98000000Y-95275000D03*
%TD*%
M02*
