M48
; DRILL file {KiCad 9.0.3} date 2025-07-28T01:45:41+0300
; FORMAT={-:-/ absolute / inch / decimal}
; #@! TF.CreationDate,2025-07-28T01:45:41+03:00
; #@! TF.GenerationSoftware,Kicad,Pcbnew,9.0.3
; #@! TF.FileFunction,Plated,1,2,PTH
FMAT,2
INCH
; #@! TA.AperFunction,Plated,PTH,ViaDrill
T1C0.0157
; #@! TA.AperFunction,Plated,PTH,ViaDrill
T2C0.0236
; #@! TA.AperFunction,Plated,PTH,ComponentDrill
T3C0.0236
; #@! TA.AperFunction,Plated,PTH,ComponentDrill
T4C0.0354
; #@! TA.AperFunction,Plated,PTH,ComponentDrill
T5C0.0394
%
G90
G05
T1
X4.2323Y-3.5039
X4.4094Y-3.5236
X4.7047Y-3.8189
X4.9016Y-3.4449
X4.9409Y-3.8386
X5.1969Y-3.8189
T2
X3.6811Y-3.5039
X3.6811Y-3.7598
X4.0551Y-3.6368
X4.4094Y-3.6614
X4.6654Y-3.2283
X4.7047Y-3.7402
X4.7606Y-3.0938
X4.7835Y-3.3268
X4.9016Y-3.2874
X4.9409Y-3.7402
T4
X3.6112Y-4.2717
X3.7112Y-4.2717
X4.4974Y-4.2913
X4.5974Y-4.2913
T5
X3.9126Y-3.1299
X4.0126Y-3.1299
X4.1126Y-3.1299
X4.2126Y-3.1299
X4.3126Y-3.1299
X5.3937Y-3.5719
X5.3937Y-3.6719
T3
G00X3.4406Y-3.3701
M15
G01X3.3736Y-3.3701
M16
G05
G00X3.4406Y-3.874
M15
G01X3.3736Y-3.874
M16
G05
M30
