%TF.GenerationSoftware,KiCad,Pcbnew,9.0.3*%
%TF.CreationDate,2025-07-28T01:45:31+03:00*%
%TF.ProjectId,Charger USB,43686172-6765-4722-9055-53422e6b6963,rev?*%
%TF.SameCoordinates,Original*%
%TF.FileFunction,Paste,Top*%
%TF.FilePolarity,Positive*%
%FSLAX46Y46*%
G04 Gerber Fmt 4.6, Leading zero omitted, Abs format (unit mm)*
G04 Created by KiCad (PCBNEW 9.0.3) date 2025-07-28 01:45:31*
%MOMM*%
%LPD*%
G01*
G04 APERTURE LIST*
G04 Aperture macros list*
%AMRoundRect*
0 Rectangle with rounded corners*
0 $1 Rounding radius*
0 $2 $3 $4 $5 $6 $7 $8 $9 X,Y pos of 4 corners*
0 Add a 4 corners polygon primitive as box body*
4,1,4,$2,$3,$4,$5,$6,$7,$8,$9,$2,$3,0*
0 Add four circle primitives for the rounded corners*
1,1,$1+$1,$2,$3*
1,1,$1+$1,$4,$5*
1,1,$1+$1,$6,$7*
1,1,$1+$1,$8,$9*
0 Add four rect primitives between the rounded corners*
20,1,$1+$1,$2,$3,$4,$5,0*
20,1,$1+$1,$4,$5,$6,$7,0*
20,1,$1+$1,$6,$7,$8,$9,0*
20,1,$1+$1,$8,$9,$2,$3,0*%
G04 Aperture macros list end*
%ADD10RoundRect,0.150000X0.587500X0.150000X-0.587500X0.150000X-0.587500X-0.150000X0.587500X-0.150000X0*%
%ADD11RoundRect,0.200000X-0.275000X0.200000X-0.275000X-0.200000X0.275000X-0.200000X0.275000X0.200000X0*%
%ADD12RoundRect,0.250000X-0.625000X0.312500X-0.625000X-0.312500X0.625000X-0.312500X0.625000X0.312500X0*%
%ADD13RoundRect,0.250000X-0.262500X-0.450000X0.262500X-0.450000X0.262500X0.450000X-0.262500X0.450000X0*%
%ADD14RoundRect,0.135000X-0.185000X0.135000X-0.185000X-0.135000X0.185000X-0.135000X0.185000X0.135000X0*%
%ADD15RoundRect,0.079500X-0.100500X0.079500X-0.100500X-0.079500X0.100500X-0.079500X0.100500X0.079500X0*%
%ADD16RoundRect,0.150000X-0.587500X-0.150000X0.587500X-0.150000X0.587500X0.150000X-0.587500X0.150000X0*%
%ADD17RoundRect,0.200000X0.275000X-0.200000X0.275000X0.200000X-0.275000X0.200000X-0.275000X-0.200000X0*%
%ADD18RoundRect,0.200000X0.200000X0.275000X-0.200000X0.275000X-0.200000X-0.275000X0.200000X-0.275000X0*%
%ADD19R,0.508000X0.977900*%
%ADD20O,2.900000X1.200000*%
%ADD21RoundRect,0.325000X-1.175000X0.325000X-1.175000X-0.325000X1.175000X-0.325000X1.175000X0.325000X0*%
G04 APERTURE END LIST*
D10*
%TO.C,Q4*%
X133000000Y-82400000D03*
X133000000Y-80500000D03*
X131125000Y-81450000D03*
%TD*%
D11*
%TO.C,R9*%
X117500000Y-98350000D03*
X117500000Y-100000000D03*
%TD*%
D12*
%TO.C,R7*%
X114500000Y-84037500D03*
X114500000Y-86962500D03*
%TD*%
D13*
%TO.C,R11*%
X121587500Y-93500000D03*
X123412500Y-93500000D03*
%TD*%
D12*
%TO.C,R8*%
X114500000Y-90500000D03*
X114500000Y-93425000D03*
%TD*%
%TO.C,R4*%
X127500000Y-86075000D03*
X127500000Y-89000000D03*
%TD*%
D14*
%TO.C,R1*%
X118500000Y-84490000D03*
X118500000Y-85510000D03*
%TD*%
D15*
%TO.C,Dz*%
X127500000Y-91655000D03*
X127500000Y-92345000D03*
%TD*%
D16*
%TO.C,Q2*%
X127625000Y-97149998D03*
X127625000Y-99049998D03*
X129500000Y-98099998D03*
%TD*%
D12*
%TO.C,R3*%
X127500000Y-80000000D03*
X127500000Y-82925000D03*
%TD*%
D17*
%TO.C,R10*%
X117500000Y-96150000D03*
X117500000Y-94500000D03*
%TD*%
D18*
%TO.C,R2*%
X115325000Y-79500000D03*
X113675000Y-79500000D03*
%TD*%
D10*
%TO.C,Q1*%
X122387500Y-81950000D03*
X122387500Y-80050000D03*
X120512500Y-81000000D03*
%TD*%
D19*
%TO.C,U2*%
X121549999Y-99415249D03*
X122500000Y-99415249D03*
X123450001Y-99415249D03*
X123450001Y-96684749D03*
X121549999Y-96684749D03*
%TD*%
D20*
%TO.C,J1*%
X86540000Y-85600000D03*
X86540000Y-98400000D03*
D21*
X90240000Y-88500000D03*
X90240000Y-91000000D03*
X90240000Y-93000000D03*
X90240000Y-95500000D03*
%TD*%
D10*
%TO.C,Q3*%
X122437500Y-89450000D03*
X122437500Y-87550000D03*
X120562500Y-88500000D03*
%TD*%
M02*
