%TF.GenerationSoftware,KiCad,Pcbnew,9.0.3*%
%TF.CreationDate,2025-07-28T01:45:31+03:00*%
%TF.ProjectId,Charger USB,43686172-6765-4722-9055-53422e6b6963,rev?*%
%TF.SameCoordinates,Original*%
%TF.FileFunction,Legend,Bot*%
%TF.FilePolarity,Positive*%
%FSLAX46Y46*%
G04 Gerber Fmt 4.6, Leading zero omitted, Abs format (unit mm)*
G04 Created by KiCad (PCBNEW 9.0.3) date 2025-07-28 01:45:31*
%MOMM*%
%LPD*%
G01*
G04 APERTURE LIST*
%ADD10C,0.150000*%
%ADD11C,0.120000*%
G04 APERTURE END LIST*
D10*
X105911904Y-81499819D02*
X105911904Y-82309342D01*
X105911904Y-82309342D02*
X105864285Y-82404580D01*
X105864285Y-82404580D02*
X105816666Y-82452200D01*
X105816666Y-82452200D02*
X105721428Y-82499819D01*
X105721428Y-82499819D02*
X105530952Y-82499819D01*
X105530952Y-82499819D02*
X105435714Y-82452200D01*
X105435714Y-82452200D02*
X105388095Y-82404580D01*
X105388095Y-82404580D02*
X105340476Y-82309342D01*
X105340476Y-82309342D02*
X105340476Y-81499819D01*
X104340476Y-82499819D02*
X104911904Y-82499819D01*
X104626190Y-82499819D02*
X104626190Y-81499819D01*
X104626190Y-81499819D02*
X104721428Y-81642676D01*
X104721428Y-81642676D02*
X104816666Y-81737914D01*
X104816666Y-81737914D02*
X104911904Y-81785533D01*
X96666666Y-102384819D02*
X96999999Y-101908628D01*
X97238094Y-102384819D02*
X97238094Y-101384819D01*
X97238094Y-101384819D02*
X96857142Y-101384819D01*
X96857142Y-101384819D02*
X96761904Y-101432438D01*
X96761904Y-101432438D02*
X96714285Y-101480057D01*
X96714285Y-101480057D02*
X96666666Y-101575295D01*
X96666666Y-101575295D02*
X96666666Y-101718152D01*
X96666666Y-101718152D02*
X96714285Y-101813390D01*
X96714285Y-101813390D02*
X96761904Y-101861009D01*
X96761904Y-101861009D02*
X96857142Y-101908628D01*
X96857142Y-101908628D02*
X97238094Y-101908628D01*
X95809523Y-101384819D02*
X95999999Y-101384819D01*
X95999999Y-101384819D02*
X96095237Y-101432438D01*
X96095237Y-101432438D02*
X96142856Y-101480057D01*
X96142856Y-101480057D02*
X96238094Y-101622914D01*
X96238094Y-101622914D02*
X96285713Y-101813390D01*
X96285713Y-101813390D02*
X96285713Y-102194342D01*
X96285713Y-102194342D02*
X96238094Y-102289580D01*
X96238094Y-102289580D02*
X96190475Y-102337200D01*
X96190475Y-102337200D02*
X96095237Y-102384819D01*
X96095237Y-102384819D02*
X95904761Y-102384819D01*
X95904761Y-102384819D02*
X95809523Y-102337200D01*
X95809523Y-102337200D02*
X95761904Y-102289580D01*
X95761904Y-102289580D02*
X95714285Y-102194342D01*
X95714285Y-102194342D02*
X95714285Y-101956247D01*
X95714285Y-101956247D02*
X95761904Y-101861009D01*
X95761904Y-101861009D02*
X95809523Y-101813390D01*
X95809523Y-101813390D02*
X95904761Y-101765771D01*
X95904761Y-101765771D02*
X96095237Y-101765771D01*
X96095237Y-101765771D02*
X96190475Y-101813390D01*
X96190475Y-101813390D02*
X96238094Y-101861009D01*
X96238094Y-101861009D02*
X96285713Y-101956247D01*
X95666666Y-97359580D02*
X95714285Y-97407200D01*
X95714285Y-97407200D02*
X95857142Y-97454819D01*
X95857142Y-97454819D02*
X95952380Y-97454819D01*
X95952380Y-97454819D02*
X96095237Y-97407200D01*
X96095237Y-97407200D02*
X96190475Y-97311961D01*
X96190475Y-97311961D02*
X96238094Y-97216723D01*
X96238094Y-97216723D02*
X96285713Y-97026247D01*
X96285713Y-97026247D02*
X96285713Y-96883390D01*
X96285713Y-96883390D02*
X96238094Y-96692914D01*
X96238094Y-96692914D02*
X96190475Y-96597676D01*
X96190475Y-96597676D02*
X96095237Y-96502438D01*
X96095237Y-96502438D02*
X95952380Y-96454819D01*
X95952380Y-96454819D02*
X95857142Y-96454819D01*
X95857142Y-96454819D02*
X95714285Y-96502438D01*
X95714285Y-96502438D02*
X95666666Y-96550057D01*
X94714285Y-97454819D02*
X95285713Y-97454819D01*
X94999999Y-97454819D02*
X94999999Y-96454819D01*
X94999999Y-96454819D02*
X95095237Y-96597676D01*
X95095237Y-96597676D02*
X95190475Y-96692914D01*
X95190475Y-96692914D02*
X95285713Y-96740533D01*
X113754166Y-102604819D02*
X114087499Y-102128628D01*
X114325594Y-102604819D02*
X114325594Y-101604819D01*
X114325594Y-101604819D02*
X113944642Y-101604819D01*
X113944642Y-101604819D02*
X113849404Y-101652438D01*
X113849404Y-101652438D02*
X113801785Y-101700057D01*
X113801785Y-101700057D02*
X113754166Y-101795295D01*
X113754166Y-101795295D02*
X113754166Y-101938152D01*
X113754166Y-101938152D02*
X113801785Y-102033390D01*
X113801785Y-102033390D02*
X113849404Y-102081009D01*
X113849404Y-102081009D02*
X113944642Y-102128628D01*
X113944642Y-102128628D02*
X114325594Y-102128628D01*
X112849404Y-101604819D02*
X113325594Y-101604819D01*
X113325594Y-101604819D02*
X113373213Y-102081009D01*
X113373213Y-102081009D02*
X113325594Y-102033390D01*
X113325594Y-102033390D02*
X113230356Y-101985771D01*
X113230356Y-101985771D02*
X112992261Y-101985771D01*
X112992261Y-101985771D02*
X112897023Y-102033390D01*
X112897023Y-102033390D02*
X112849404Y-102081009D01*
X112849404Y-102081009D02*
X112801785Y-102176247D01*
X112801785Y-102176247D02*
X112801785Y-102414342D01*
X112801785Y-102414342D02*
X112849404Y-102509580D01*
X112849404Y-102509580D02*
X112897023Y-102557200D01*
X112897023Y-102557200D02*
X112992261Y-102604819D01*
X112992261Y-102604819D02*
X113230356Y-102604819D01*
X113230356Y-102604819D02*
X113325594Y-102557200D01*
X113325594Y-102557200D02*
X113373213Y-102509580D01*
X111764819Y-79166666D02*
X112479104Y-79166666D01*
X112479104Y-79166666D02*
X112621961Y-79119047D01*
X112621961Y-79119047D02*
X112717200Y-79023809D01*
X112717200Y-79023809D02*
X112764819Y-78880952D01*
X112764819Y-78880952D02*
X112764819Y-78785714D01*
X111764819Y-79547619D02*
X111764819Y-80166666D01*
X111764819Y-80166666D02*
X112145771Y-79833333D01*
X112145771Y-79833333D02*
X112145771Y-79976190D01*
X112145771Y-79976190D02*
X112193390Y-80071428D01*
X112193390Y-80071428D02*
X112241009Y-80119047D01*
X112241009Y-80119047D02*
X112336247Y-80166666D01*
X112336247Y-80166666D02*
X112574342Y-80166666D01*
X112574342Y-80166666D02*
X112669580Y-80119047D01*
X112669580Y-80119047D02*
X112717200Y-80071428D01*
X112717200Y-80071428D02*
X112764819Y-79976190D01*
X112764819Y-79976190D02*
X112764819Y-79690476D01*
X112764819Y-79690476D02*
X112717200Y-79595238D01*
X112717200Y-79595238D02*
X112669580Y-79547619D01*
X98166666Y-97359580D02*
X98214285Y-97407200D01*
X98214285Y-97407200D02*
X98357142Y-97454819D01*
X98357142Y-97454819D02*
X98452380Y-97454819D01*
X98452380Y-97454819D02*
X98595237Y-97407200D01*
X98595237Y-97407200D02*
X98690475Y-97311961D01*
X98690475Y-97311961D02*
X98738094Y-97216723D01*
X98738094Y-97216723D02*
X98785713Y-97026247D01*
X98785713Y-97026247D02*
X98785713Y-96883390D01*
X98785713Y-96883390D02*
X98738094Y-96692914D01*
X98738094Y-96692914D02*
X98690475Y-96597676D01*
X98690475Y-96597676D02*
X98595237Y-96502438D01*
X98595237Y-96502438D02*
X98452380Y-96454819D01*
X98452380Y-96454819D02*
X98357142Y-96454819D01*
X98357142Y-96454819D02*
X98214285Y-96502438D01*
X98214285Y-96502438D02*
X98166666Y-96550057D01*
X97785713Y-96550057D02*
X97738094Y-96502438D01*
X97738094Y-96502438D02*
X97642856Y-96454819D01*
X97642856Y-96454819D02*
X97404761Y-96454819D01*
X97404761Y-96454819D02*
X97309523Y-96502438D01*
X97309523Y-96502438D02*
X97261904Y-96550057D01*
X97261904Y-96550057D02*
X97214285Y-96645295D01*
X97214285Y-96645295D02*
X97214285Y-96740533D01*
X97214285Y-96740533D02*
X97261904Y-96883390D01*
X97261904Y-96883390D02*
X97833332Y-97454819D01*
X97833332Y-97454819D02*
X97214285Y-97454819D01*
D11*
%TO.C,U1*%
X101290000Y-82885000D02*
X105150000Y-82885000D01*
X101290000Y-83130000D02*
X101290000Y-82885000D01*
X101290000Y-100760000D02*
X101290000Y-101005000D01*
X101290000Y-101005000D02*
X105150000Y-101005000D01*
X109010000Y-82885000D02*
X105150000Y-82885000D01*
X109010000Y-83130000D02*
X109010000Y-82885000D01*
X109010000Y-100760000D02*
X109010000Y-101005000D01*
X109010000Y-101005000D02*
X105150000Y-101005000D01*
X109862500Y-83130000D02*
X109522500Y-82660000D01*
X110202500Y-82660000D01*
X109862500Y-83130000D01*
G36*
X109862500Y-83130000D02*
G01*
X109522500Y-82660000D01*
X110202500Y-82660000D01*
X109862500Y-83130000D01*
G37*
%TO.C,R6*%
X96737258Y-99977500D02*
X96262742Y-99977500D01*
X96737258Y-101022500D02*
X96262742Y-101022500D01*
%TO.C,C1*%
X94765000Y-94761252D02*
X94765000Y-94238748D01*
X96235000Y-94761252D02*
X96235000Y-94238748D01*
%TO.C,R5*%
X113814564Y-99765000D02*
X113360436Y-99765000D01*
X113814564Y-101235000D02*
X113360436Y-101235000D01*
%TO.C,J3*%
X98050000Y-78170000D02*
X98050000Y-80830000D01*
X98050000Y-78170000D02*
X108270000Y-78170000D01*
X98050000Y-80830000D02*
X108270000Y-80830000D01*
X108270000Y-78170000D02*
X108270000Y-80830000D01*
X109540000Y-78170000D02*
X110870000Y-78170000D01*
X110870000Y-78170000D02*
X110870000Y-79500000D01*
%TO.C,C2*%
X97490000Y-94640580D02*
X97490000Y-94359420D01*
X98510000Y-94640580D02*
X98510000Y-94359420D01*
%TD*%
M02*
